<?xml version="1.0" standalone="no"?><!-- Generator: Gravit.io --><svg xmlns="http://www.w3.org/2000/svg" xmlns:xlink="http://www.w3.org/1999/xlink" style="isolation:isolate" viewBox="0 0 35 35" width="35" height="35"><defs><clipPath id="_clipPath_9yBRBKnsfbkxEmYZBpFWzSq5ervzyUCL"><rect width="35" height="35"/></clipPath></defs><g clip-path="url(#_clipPath_9yBRBKnsfbkxEmYZBpFWzSq5ervzyUCL)"><g id="Group"><path d=" M 0 17.5 C 0 7.841 7.841 0 17.5 0 C 27.159 0 35 7.841 35 17.5 C 35 27.159 27.159 35 17.5 35 C 7.841 35 0 27.159 0 17.5 Z " fill="rgb(255,151,28)"/><path d=" M 23.399 25.259 L 20.138 25.259 L 19.103 21.86 L 13.897 21.86 L 12.862 25.259 L 9.601 25.259 L 14.64 10.923 L 18.341 10.923 L 23.399 25.259 L 23.399 25.259 Z  M 14.659 19.321 L 18.38 19.321 L 18.38 19.321 Q 16.944 14.702 16.764 14.097 L 16.764 14.097 L 16.764 14.097 Q 16.583 13.491 16.505 13.14 L 16.505 13.14 L 16.505 13.14 Q 16.183 14.39 14.659 19.321 L 14.659 19.321 L 14.659 19.321 Z " fill-rule="evenodd" fill="rgb(255,255,255)"/></g></g></svg>