<?xml version="1.0" standalone="no"?><!-- Generator: Gravit.io --><svg xmlns="http://www.w3.org/2000/svg" xmlns:xlink="http://www.w3.org/1999/xlink" style="isolation:isolate" viewBox="0 0 35 35" width="35" height="35"><defs><clipPath id="_clipPath_CESrr6a9Mq4f8Tgjrw4mCPGgVVCcse84"><rect width="35" height="35"/></clipPath></defs><g clip-path="url(#_clipPath_CESrr6a9Mq4f8Tgjrw4mCPGgVVCcse84)"><g id="Group"><path d=" M 0 17.5 C 0 7.841 7.841 0 17.5 0 C 27.159 0 35 7.841 35 17.5 C 35 27.159 27.159 35 17.5 35 C 7.841 35 0 27.159 0 17.5 Z " fill="rgb(255,151,28)"/><path d=" M 11.578 25.259 L 11.578 10.981 L 16.021 10.981 L 16.021 10.981 Q 19.059 10.981 20.431 11.846 L 20.431 11.846 L 20.431 11.846 Q 21.803 12.71 21.803 14.595 L 21.803 14.595 L 21.803 14.595 Q 21.803 15.874 21.202 16.694 L 21.202 16.694 L 21.202 16.694 Q 20.602 17.515 19.605 17.681 L 19.605 17.681 L 19.605 17.778 L 19.605 17.778 Q 20.963 18.081 21.563 18.911 L 21.563 18.911 L 21.563 18.911 Q 22.164 19.741 22.164 21.118 L 22.164 21.118 L 22.164 21.118 Q 22.164 23.071 20.753 24.165 L 20.753 24.165 L 20.753 24.165 Q 19.342 25.259 16.92 25.259 L 16.92 25.259 L 11.578 25.259 L 11.578 25.259 Z  M 14.605 13.462 L 14.605 16.636 L 16.363 16.636 L 16.363 16.636 Q 17.594 16.636 18.146 16.255 L 18.146 16.255 L 18.146 16.255 Q 18.697 15.874 18.697 14.995 L 18.697 14.995 L 18.697 14.995 Q 18.697 14.175 18.097 13.818 L 18.097 13.818 L 18.097 13.818 Q 17.496 13.462 16.197 13.462 L 16.197 13.462 L 14.605 13.462 L 14.605 13.462 Z  M 16.48 19.038 L 14.605 19.038 L 14.605 22.759 L 16.578 22.759 L 16.578 22.759 Q 17.828 22.759 18.424 22.28 L 18.424 22.28 L 18.424 22.28 Q 19.02 21.802 19.02 20.815 L 19.02 20.815 L 19.02 20.815 Q 19.02 19.038 16.48 19.038 L 16.48 19.038 L 16.48 19.038 Z " fill-rule="evenodd" fill="rgb(255,255,255)"/></g></g></svg>