<?xml version="1.0" standalone="no"?><!-- Generator: Gravit.io --><svg xmlns="http://www.w3.org/2000/svg" xmlns:xlink="http://www.w3.org/1999/xlink" style="isolation:isolate" viewBox="0 0 35 35" width="35" height="35"><defs><clipPath id="_clipPath_w0YLZbP21LpZW6Z3PQqu4wBJCmwyAd7A"><rect width="35" height="35"/></clipPath></defs><g clip-path="url(#_clipPath_w0YLZbP21LpZW6Z3PQqu4wBJCmwyAd7A)"><rect width="35" height="35" style="fill:rgba(0,0,0,0)"/><g id="Group"><path d=" M 0 17.5 C 0 7.841 7.841 0 17.5 0 C 27.159 0 35 7.841 35 17.5 C 35 27.159 27.159 35 17.5 35 C 7.841 35 0 27.159 0 17.5 Z " fill="rgb(255,151,28)"/><path d=" M 17.489 13.296 L 17.489 13.296 L 17.489 13.296 Q 15.78 13.296 14.843 14.58 L 14.843 14.58 L 14.843 14.58 Q 13.905 15.864 13.905 18.159 L 13.905 18.159 L 13.905 18.159 Q 13.905 22.935 17.489 22.935 L 17.489 22.935 L 17.489 22.935 Q 18.993 22.935 21.132 22.183 L 21.132 22.183 L 21.132 24.722 L 21.132 24.722 Q 19.374 25.454 17.206 25.454 L 17.206 25.454 L 17.206 25.454 Q 14.091 25.454 12.44 23.564 L 12.44 23.564 L 12.44 23.564 Q 10.79 21.675 10.79 18.14 L 10.79 18.14 L 10.79 18.14 Q 10.79 15.913 11.601 14.238 L 11.601 14.238 L 11.601 14.238 Q 12.411 12.563 13.93 11.67 L 13.93 11.67 L 13.93 11.67 Q 15.448 10.776 17.489 10.776 L 17.489 10.776 L 17.489 10.776 Q 19.569 10.776 21.669 11.782 L 21.669 11.782 L 20.692 14.243 L 20.692 14.243 Q 19.892 13.862 19.081 13.579 L 19.081 13.579 L 19.081 13.579 Q 18.271 13.296 17.489 13.296 Z " fill="rgb(255,255,255)"/></g></g></svg>