<?xml version="1.0" standalone="no"?><!-- Generator: Gravit.io --><svg xmlns="http://www.w3.org/2000/svg" xmlns:xlink="http://www.w3.org/1999/xlink" style="isolation:isolate" viewBox="0 0 35 35" width="35" height="35"><defs><clipPath id="_clipPath_kYYWLvsjTFsPHvQlOAwBaNNJT1BSKsEJ"><rect width="35" height="35"/></clipPath></defs><g clip-path="url(#_clipPath_kYYWLvsjTFsPHvQlOAwBaNNJT1BSKsEJ)"><rect width="35" height="35" style="fill:rgba(0,0,0,0)"/><g id="Group"><path d=" M 0 17.5 C 0 7.841 7.841 0 17.5 0 C 27.159 0 35 7.841 35 17.5 C 35 27.159 27.159 35 17.5 35 C 7.841 35 0 27.159 0 17.5 Z " fill="rgb(255,151,28)"/><path d=" M 23.24 17.983 L 23.24 17.983 L 23.24 17.983 Q 23.24 21.509 21.233 23.384 L 21.233 23.384 L 21.233 23.384 Q 19.227 25.259 15.438 25.259 L 15.438 25.259 L 11.395 25.259 L 11.395 10.981 L 15.877 10.981 L 15.877 10.981 Q 19.373 10.981 21.307 12.827 L 21.307 12.827 L 21.307 12.827 Q 23.24 14.673 23.24 17.983 Z  M 20.096 18.062 L 20.096 18.062 L 20.096 18.062 Q 20.096 13.462 16.033 13.462 L 16.033 13.462 L 14.422 13.462 L 14.422 22.759 L 15.721 22.759 L 15.721 22.759 Q 20.096 22.759 20.096 18.062 Z " fill-rule="evenodd" fill="rgb(255,255,255)"/></g></g></svg>