<?xml version="1.0" standalone="no"?><!-- Generator: Gravit.io --><svg xmlns="http://www.w3.org/2000/svg" xmlns:xlink="http://www.w3.org/1999/xlink" style="isolation:isolate" viewBox="0 0 35 35" width="35" height="35"><defs><clipPath id="_clipPath_XBbRAXDDVtEdelrM0O40wFZUgvxv4bEC"><rect width="35" height="35"/></clipPath></defs><g clip-path="url(#_clipPath_XBbRAXDDVtEdelrM0O40wFZUgvxv4bEC)"><rect width="35" height="35" style="fill:rgba(0,0,0,0)"/><g id="Group"><path d=" M 0 17.5 C 0 7.841 7.841 0 17.5 0 C 27.159 0 35 7.841 35 17.5 C 35 27.159 27.159 35 17.5 35 C 7.841 35 0 27.159 0 17.5 Z " fill="rgb(255,151,28)"/><path d=" M 20.919 22.759 L 20.919 25.259 L 12.696 25.259 L 12.696 10.981 L 20.919 10.981 L 20.919 13.462 L 15.724 13.462 L 15.724 16.597 L 20.558 16.597 L 20.558 19.077 L 15.724 19.077 L 15.724 22.759 L 20.919 22.759 L 20.919 22.759 Z " fill="rgb(255,255,255)"/></g></g></svg>