<?xml version="1.0" standalone="no"?><!-- Generator: Gravit.io --><svg xmlns="http://www.w3.org/2000/svg" xmlns:xlink="http://www.w3.org/1999/xlink" style="isolation:isolate" viewBox="0 0 35 35" width="35" height="35"><defs><clipPath id="_clipPath_jpsz1tFNDij1w8Hpy7cO6YVjbUm4czOf"><rect width="35" height="35"/></clipPath></defs><g clip-path="url(#_clipPath_jpsz1tFNDij1w8Hpy7cO6YVjbUm4czOf)"><rect width="35" height="35" style="fill:rgba(0,0,0,0)"/><g id="Group"><path d=" M 0 17.5 C 0 7.841 7.841 0 17.5 0 C 27.159 0 35 7.841 35 17.5 C 35 27.159 27.159 35 17.5 35 C 7.841 35 0 27.159 0 17.5 Z " fill="rgb(255,151,28)"/><path d=" M 16.717 19.761 L 16.717 17.241 L 22.381 17.241 L 22.381 24.644 L 22.381 24.644 Q 21.004 25.093 19.788 25.273 L 19.788 25.273 L 19.788 25.273 Q 18.572 25.454 17.303 25.454 L 17.303 25.454 L 17.303 25.454 Q 14.07 25.454 12.366 23.555 L 12.366 23.555 L 12.366 23.555 Q 10.662 21.655 10.662 18.101 L 10.662 18.101 L 10.662 18.101 Q 10.662 14.644 12.64 12.71 L 12.64 12.71 L 12.64 12.71 Q 14.617 10.776 18.123 10.776 L 18.123 10.776 L 18.123 10.776 Q 20.32 10.776 22.361 11.655 L 22.361 11.655 L 21.355 14.077 L 21.355 14.077 Q 19.793 13.296 18.104 13.296 L 18.104 13.296 L 18.104 13.296 Q 16.141 13.296 14.959 14.614 L 14.959 14.614 L 14.959 14.614 Q 13.777 15.933 13.777 18.159 L 13.777 18.159 L 13.777 18.159 Q 13.777 20.483 14.729 21.709 L 14.729 21.709 L 14.729 21.709 Q 15.682 22.935 17.498 22.935 L 17.498 22.935 L 17.498 22.935 Q 18.445 22.935 19.422 22.739 L 19.422 22.739 L 19.422 19.761 L 16.717 19.761 L 16.717 19.761 Z " fill="rgb(255,255,255)"/></g></g></svg>