<svg width="49px" height="55px" viewBox="0 0 49 55" version="1.1" xmlns="http://www.w3.org/2000/svg" xmlns:xlink="http://www.w3.org/1999/xlink">
    <g id="Page-1" stroke="none" stroke-width="1" fill="none" fill-rule="evenodd">
        <g id="Amazon-Elastic-Container-Service-for-Kubernetes" fill-rule="nonzero">
            <g id="Icon_Test">
                <path d="M24.4999921,54.5100239 C24.3248236,54.5112098 24.1524029,54.4663804 23.9999921,54.38 L0.999992084,41.1 C0.689365807,40.920659 0.498575994,40.5886848 0.499992084,40.23 L0.499992084,13.67 C0.498575994,13.3113152 0.689365807,12.979341 0.999992084,12.8 L21.9999921,0.62 C22.3094011,0.441367205 22.6905989,0.441367205 22.9999921,0.62 C23.3106342,0.799340966 23.501424,1.13131524 23.4999921,1.49 L23.4999921,13 C23.501424,13.3586848 23.3106342,13.690659 22.9999921,13.87 L12.4999921,20 L12.4999921,33.87 L24.4999921,40.8 L34.97,34.8 C35.2794011,34.6213672 35.6605989,34.6213672 35.97,34.8 L45.97,40.57 C46.2833105,40.7475612 46.4769483,41.079873 46.4769483,41.44 C46.4769483,41.800127 46.2833105,42.1324388 45.97,42.31 L24.9999921,54.38 C24.8475971,54.4663804 24.6751764,54.5112098 24.4999921,54.5100239 L24.4999921,54.5100239 Z" id="Shape" fill="#377DF7"></path>
                <path d="M47.4999921,38.9300239 C47.3248236,38.9312098 47.1524029,38.8863804 46.9999921,38.8 L36.9999921,33.05 C36.6854933,32.8800051 36.5069976,32.5349134 36.55,32.18 L36.55,20 L25.9999921,14 C25.6893658,13.820659 25.498576,13.4886848 25.4999921,13.13 L25.4999921,1.6 C25.498576,1.24131524 25.6893658,0.909340966 25.9999921,0.73 C26.3123884,0.562887621 26.6876116,0.562887621 26.9999921,0.73 L47.9999921,12.8 C48.3106342,12.979341 48.501424,13.3113152 48.5000079,13.67 L48.5000079,37.93 C48.5000079,38.4822847 48.0522847,38.9300239 47.4999921,38.9300239 Z" id="Shape" fill="#4052D7"></path>
                <polygon id="Path" fill="#4052D7" points="19.5 34.49 19.5 19.49 21.5 19.49 21.5 26.32 28 19.49 30.64 19.49 23.86 26.79 31.23 34.49 28.5 34.49 21.5 27.49 21.5 34.49"></polygon>
            </g>
        </g>
    </g>
</svg>