<svg width="40" height="35" viewBox="0 0 40 35" fill="none" xmlns="http://www.w3.org/2000/svg">
<path d="M29.7 0.699997H10.4L0.799988 17.4L10.4 34.1H29.7L39.3 17.4L29.7 0.699997ZM29.8 24.9C29.8 26.3 28.6 27.5 27.2 27.5H13C11.6 27.5 10.4 26.3 10.4 24.9V10C10.4 8.6 11.6 7.4 13 7.4H23.5C24.5 7.4 25.5 7.4 25.5 7.4H25.8L29.8 11.4V13.5V24.9Z" fill="#0078D7"/>
<path d="M18.6 20.1C18.6 19.9 18.5 19.8 18.5 19.7C18.5 19.6 18.4 19.5 18.3 19.4C18.2 19.3 18.2 19.3 18.1 19.3C18 19.3 17.9 19.3 17.8 19.3C17.6 19.3 17.5 19.3 17.4 19.4C17.3 19.5 17.2 19.6 17.1 19.8C17 20 17 20.2 17 20.4C17 20.6 17 20.9 17 21.3C17 21.7 17 22 17 22.3C17 22.6 17.1 22.8 17.2 22.9C17.3 23.1 17.4 23.2 17.5 23.2C17.6 23.3 17.7 23.3 17.9 23.3C18 23.3 18.1 23.3 18.2 23.2C18.3 23.2 18.4 23.1 18.4 23C18.5 22.9 18.5 22.8 18.6 22.7C18.6 22.6 18.7 22.5 18.7 22.3C18.7 22.2 18.7 22 18.8 21.8C18.8 21.6 18.8 21.4 18.8 21.2C18.8 20.9 18.8 20.7 18.8 20.5C18.6 20.4 18.6 20.3 18.6 20.1Z" fill="#0078D7"/>
<path d="M23.1 12.3C23.1 12.1 23 12 23 11.9C23 11.8 22.9 11.7 22.8 11.6C22.7 11.5 22.7 11.5 22.6 11.5C22.5 11.5 22.4 11.5 22.3 11.5C22.1 11.5 22 11.5 21.9 11.6C21.8 11.7 21.7 11.8 21.6 12C21.5 12.2 21.5 12.4 21.5 12.6C21.5 12.8 21.5 13.1 21.5 13.5C21.5 13.9 21.5 14.2 21.5 14.5C21.5 14.8 21.6 15 21.7 15.1C21.8 15.3 21.9 15.4 22 15.4C22.1 15.5 22.2 15.5 22.4 15.5C22.5 15.5 22.6 15.5 22.7 15.4C22.8 15.4 22.9 15.3 22.9 15.2C23 15.1 23 15 23.1 14.9C23.1 14.8 23.2 14.7 23.2 14.5C23.2 14.4 23.2 14.2 23.3 14C23.3 13.8 23.3 13.6 23.3 13.4C23.3 13.1 23.3 12.9 23.3 12.7C23.2 12.7 23.2 12.5 23.1 12.3Z" fill="#0078D7"/>
<path d="M25.1 8.79999C24.7 8.79999 24.1 8.79999 23.5 8.79999H13C12.3 8.79999 11.8 9.29999 11.8 9.99999V24.9C11.8 25.6 12.3 26.1 13 26.1H27.2C27.8 26.1 28.4 25.6 28.4 24.9V12.1H25.2V8.79999H25.1ZM16.2 11.8V11.7V11.6C16.2 11.6 16.2 11.6 16.3 11.5L17.5 10.7C17.5 10.7 17.5 10.7 17.6 10.7H17.7H17.8C17.9 10.7 17.9 10.7 18 10.7C18.1 10.7 18.2 10.7 18.3 10.7C18.4 10.7 18.4 10.7 18.5 10.7H18.6C18.6 10.7 18.6 10.7 18.6 10.8V15.5H19.5H19.6C19.6 15.5 19.6 15.5 19.7 15.6C19.8 15.7 19.7 15.7 19.7 15.7C19.7 15.8 19.7 15.8 19.7 15.9C19.7 16 19.7 16.1 19.7 16.1C19.7 16.2 19.7 16.2 19.7 16.2C19.7 16.2 19.7 16.3 19.6 16.3C19.6 16.3 19.6 16.3 19.5 16.3H16.4C16.4 16.3 16.4 16.3 16.3 16.3C16.3 16.3 16.3 16.3 16.2 16.2V16.1C16.2 16 16.2 16 16.2 15.9C16.2 15.8 16.2 15.7 16.2 15.7C16.2 15.6 16.2 15.6 16.2 15.6C16.2 15.6 16.2 15.5 16.3 15.5C16.3 15.5 16.3 15.5 16.4 15.5H17.5V11.8L16.6 12.3C16.5 12.3 16.5 12.4 16.4 12.4H16.3C16.3 12.4 16.3 12.3 16.2 12.3C16.2 12.2 16.2 12.2 16.2 12C16.2 11.9 16.2 11.8 16.2 11.8ZM19.7 22.5C19.6 22.9 19.5 23.2 19.3 23.4C19.1 23.7 18.9 23.9 18.7 24C18.4 24.1 18.1 24.2 17.7 24.2C17.3 24.2 17 24.1 16.7 24C16.4 23.9 16.2 23.7 16.1 23.4C16 23.1 15.8 22.8 15.8 22.5C15.7 22.1 15.7 21.7 15.7 21.3C15.7 20.8 15.7 20.4 15.8 20.1C15.9 19.7 16 19.4 16.2 19.2C16.4 19 16.6 18.7 16.8 18.6C17.1 18.5 17.4 18.4 17.8 18.4C18.2 18.4 18.5 18.5 18.8 18.6C19.1 18.7 19.3 18.9 19.4 19.2C19.5 19.5 19.7 19.8 19.7 20.1C19.8 20.5 19.8 20.9 19.8 21.3C19.8 21.8 19.8 22.2 19.7 22.5ZM24.2 23.9C24.2 24 24.2 24 24.2 24C24.2 24 24.2 24.1 24.1 24.1C24.1 24.1 24.1 24.1 24 24.1H20.9C20.9 24.1 20.9 24.1 20.8 24.1C20.8 24.1 20.8 24.1 20.7 24V23.9C20.7 23.8 20.7 23.8 20.7 23.7C20.7 23.6 20.7 23.5 20.7 23.5C20.7 23.4 20.7 23.4 20.7 23.4C20.7 23.4 20.7 23.3 20.8 23.3C20.8 23.3 20.8 23.3 20.9 23.3H22V19.6L21.1 20.1C21 20.1 21 20.2 20.9 20.2H20.8C20.8 20.2 20.8 20.1 20.7 20.1C20.7 20 20.7 20 20.7 19.8C20.7 19.7 20.7 19.7 20.7 19.6V19.5V19.4C20.7 19.4 20.7 19.4 20.8 19.3L22 18.5C22 18.5 22 18.5 22.1 18.5H22.2H22.3C22.4 18.5 22.4 18.5 22.5 18.5C22.6 18.5 22.7 18.5 22.8 18.5C22.9 18.5 22.9 18.5 23 18.5H23.1C23.1 18.5 23.1 18.5 23.1 18.6V23.3H24H24.1C24.1 23.3 24.1 23.3 24.2 23.4V23.5C24.2 23.6 24.2 23.6 24.2 23.7C24.2 23.8 24.2 23.9 24.2 23.9ZM24.3 14.7C24.2 15.1 24.1 15.4 23.9 15.6C23.7 15.9 23.5 16.1 23.3 16.2C23 16.3 22.7 16.4 22.3 16.4C21.9 16.4 21.6 16.3 21.3 16.2C21 16.1 20.8 15.9 20.7 15.6C20.6 15.4 20.4 15 20.4 14.7C20.4 14.4 20.3 13.9 20.3 13.5C20.3 13 20.3 12.6 20.4 12.3C20.5 11.9 20.6 11.6 20.8 11.4C21 11.1 21.2 10.9 21.4 10.8C21.7 10.7 22 10.6 22.4 10.6C22.8 10.6 23.1 10.7 23.4 10.8C23.7 10.9 23.9 11.1 24 11.4C24.1 11.7 24.3 12 24.3 12.3C24.4 12.7 24.4 13.1 24.4 13.5C24.4 14 24.3 14.4 24.3 14.7Z" fill="#0078D7"/>
</svg>
