<?xml version="1.0" encoding="UTF-8" standalone="no"?>
<svg
   xmlns:dc="http://purl.org/dc/elements/1.1/"
   xmlns:cc="http://creativecommons.org/ns#"
   xmlns:rdf="http://www.w3.org/1999/02/22-rdf-syntax-ns#"
   xmlns:svg="http://www.w3.org/2000/svg"
   xmlns="http://www.w3.org/2000/svg"
   xmlns:xlink="http://www.w3.org/1999/xlink"
   xmlns:sodipodi="http://sodipodi.sourceforge.net/DTD/sodipodi-0.dtd"
   xmlns:inkscape="http://www.inkscape.org/namespaces/inkscape"
   id="117b99f4-5992-4e61-b9b2-898960b1a6c0"
   data-name="Layer 1"
   viewBox="0 0 166.76747 118.23724"
   version="1.1"
   sodipodi:docname="fluent-bit.svg"
   inkscape:version="0.92.2 5c3e80d, 2017-08-06"
   width="166.76747"
   height="118.23724">
  <metadata
     id="metadata324">
    <rdf:RDF>
      <cc:Work
         rdf:about="">
        <dc:format>image/svg+xml</dc:format>
        <dc:type
           rdf:resource="http://purl.org/dc/dcmitype/StillImage" />
        <dc:title>fluent-bit</dc:title>
      </cc:Work>
    </rdf:RDF>
  </metadata>
  <sodipodi:namedview
     pagecolor="#ffffff"
     bordercolor="#666666"
     borderopacity="1"
     objecttolerance="10"
     gridtolerance="10"
     guidetolerance="10"
     inkscape:pageopacity="0"
     inkscape:pageshadow="2"
     inkscape:window-width="1447"
     inkscape:window-height="840"
     id="namedview322"
     showgrid="false"
     inkscape:zoom="1.7061153"
     inkscape:cx="172.58765"
     inkscape:cy="95.073702"
     inkscape:window-x="0"
     inkscape:window-y="0"
     inkscape:window-maximized="0"
     inkscape:current-layer="117b99f4-5992-4e61-b9b2-898960b1a6c0" />
  <defs
     id="defs265">
    <style
       id="style187">.\35 98a75a7-8e77-4b08-aa18-27436d8920ab{fill:#181c1d;}.ce167006-3339-4668-8f16-91047712c11b{fill:#30b99e;}.\35 313474d-7b00-4001-8cfb-d0bdc431e9d5{fill:url(#ba62b45c-1b7a-4ca2-ab5f-0a706f9c25a3);}.\30 1efb410-0dd1-4f90-a174-5c04be878ee5{fill:url(#c6c6a081-ecb7-45ef-9527-9abc9ba57229);}.\31 9a65966-0460-499c-99a1-b369388a0646,.\35 5184b11-d7e2-4d0e-9032-2a3f8db8786a,.\37 9a5b38b-0f00-46e2-b4ee-2c16c6300af6,.\39 7236337-f545-4f39-8742-207207450e11,.fb10ef4c-c4be-43a8-8fbf-d5b26e37bb35{opacity:0.8;}.\31 9a65966-0460-499c-99a1-b369388a0646,.\32 2722a55-f647-4637-99cc-60918a2764ac,.\33 f5c3919-4d9f-494d-b321-e017b2313f93,.\35 5184b11-d7e2-4d0e-9032-2a3f8db8786a,.\37 9a5b38b-0f00-46e2-b4ee-2c16c6300af6,.\39 7236337-f545-4f39-8742-207207450e11,.aaaa1a10-fea0-4800-9d33-be1b198e273c,.c67ccf0e-3e36-4f55-bb9c-94ccddf284e7,.dad0ec1f-c046-42c9-ad2d-379cecc11379,.fb10ef4c-c4be-43a8-8fbf-d5b26e37bb35{isolation:isolate;}.\31 9a65966-0460-499c-99a1-b369388a0646{fill:url(#6e9f803d-2cc6-416d-91b9-0156e3abadb7);}.\35 5184b11-d7e2-4d0e-9032-2a3f8db8786a{fill:url(#cbbfb65d-6fb3-4a15-97f8-f19d85cd2f74);}.\37 9a5b38b-0f00-46e2-b4ee-2c16c6300af6{fill:url(#56a87ca8-5cee-49b0-b4ae-ccc3f1248e4d);}.\33 88e342c-d74a-4086-9856-3aab0265e90e{fill:url(#020eb5d5-54d4-41de-b0d5-d50f19fba27c);}.\39 7236337-f545-4f39-8742-207207450e11{fill:url(#ce17bf1b-c72a-4deb-b2b6-7bac2ede920e);}.\32 2722a55-f647-4637-99cc-60918a2764ac,.\33 f5c3919-4d9f-494d-b321-e017b2313f93,.aaaa1a10-fea0-4800-9d33-be1b198e273c,.c67ccf0e-3e36-4f55-bb9c-94ccddf284e7,.dad0ec1f-c046-42c9-ad2d-379cecc11379{opacity:0.3;}.\32 2722a55-f647-4637-99cc-60918a2764ac{fill:url(#897e37da-cb97-49b1-817e-69ebe86ce200);}.c67ccf0e-3e36-4f55-bb9c-94ccddf284e7{fill:url(#c8a3fcfa-4f17-44ce-89be-7ddc504b1655);}.\33 f5c3919-4d9f-494d-b321-e017b2313f93{fill:url(#bb2bb411-793e-4d93-8d61-3615f402bf79);}.dad0ec1f-c046-42c9-ad2d-379cecc11379{fill:url(#5ba00cc6-37bf-4e88-8295-b79b5e3982aa);}.\32 b8e6961-320c-4bfe-876d-be4e189c40ca{fill:url(#ba7b456e-02ef-478f-b9a2-9b56141000d5);}.aaaa1a10-fea0-4800-9d33-be1b198e273c{fill:url(#ef0d28d4-6870-47b9-bd49-462cd818052b);}.fb10ef4c-c4be-43a8-8fbf-d5b26e37bb35{fill:url(#cbc2a39f-f3ff-4c36-a61e-f7f33cbfe39b);}.e2b74e7a-af5c-4338-810a-9836156af306{fill:url(#28a71069-948e-45a2-b54d-fc8fce0bd909);}.\38 d0e61ff-e827-4a82-b1a2-99efd9aea4ab{fill:url(#64f03583-7914-4d53-9227-5713c23acf2e);}.\35 0a128f9-547f-4a1a-8db8-8dc1690431f7{fill:#fff;}</style>
    <linearGradient
       id="ba62b45c-1b7a-4ca2-ab5f-0a706f9c25a3"
       x1="325.39001"
       y1="156.05"
       x2="168.60001"
       y2="98.989998"
       gradientTransform="matrix(0.96,0.27,0.27,-0.96,-185.47,128.55408)"
       gradientUnits="userSpaceOnUse">
      <stop
         offset="0.3"
         stop-color="#0097ce"
         id="stop189" />
      <stop
         offset="0.38"
         stop-color="#0999c5"
         id="stop191" />
      <stop
         offset="0.51"
         stop-color="#229dad"
         id="stop193" />
      <stop
         offset="0.65"
         stop-color="#42a38f"
         id="stop195" />
      <stop
         offset="0.74"
         stop-color="#5dad82"
         id="stop197" />
      <stop
         offset="0.92"
         stop-color="#a1c661"
         id="stop199" />
      <stop
         offset="1"
         stop-color="#bed153"
         id="stop201" />
    </linearGradient>
    <linearGradient
       id="c6c6a081-ecb7-45ef-9527-9abc9ba57229"
       x1="145.55"
       y1="151.67"
       x2="312.60001"
       y2="151.67"
       gradientTransform="matrix(0.96,0.27,0.27,-0.96,-185.47,128.55408)"
       gradientUnits="userSpaceOnUse">
      <stop
         offset="0.08"
         stop-color="#3d65af"
         id="stop204" />
      <stop
         offset="0.23"
         stop-color="#2372b8"
         id="stop206" />
      <stop
         offset="0.51"
         stop-color="#00b8bb"
         id="stop208" />
    </linearGradient>
    <linearGradient
       id="6e9f803d-2cc6-416d-91b9-0156e3abadb7"
       x1="145.48"
       y1="170.03999"
       x2="236.22"
       y2="170.03999"
       gradientTransform="matrix(0.96,0.27,0.27,-0.96,-66.24,164.46)"
       gradientUnits="userSpaceOnUse">
      <stop
         offset="0.13"
         id="stop211" />
      <stop
         offset="0.33"
         stop-color="#00334b"
         id="stop213" />
      <stop
         offset="0.53"
         stop-color="#006190"
         id="stop215" />
      <stop
         offset="0.67"
         stop-color="#007fbb"
         id="stop217" />
      <stop
         offset="0.75"
         stop-color="#008acc"
         id="stop219" />
    </linearGradient>
    <linearGradient
       id="cbbfb65d-6fb3-4a15-97f8-f19d85cd2f74"
       x1="145.48"
       y1="173.27"
       x2="236.22"
       y2="173.27"
       xlink:href="#6e9f803d-2cc6-416d-91b9-0156e3abadb7"
       gradientTransform="translate(-119.23,-35.905917)" />
    <linearGradient
       id="56a87ca8-5cee-49b0-b4ae-ccc3f1248e4d"
       x1="145.48"
       y1="172.99001"
       x2="236.22"
       y2="172.99001"
       xlink:href="#6e9f803d-2cc6-416d-91b9-0156e3abadb7"
       gradientTransform="translate(-119.23,-35.905917)" />
    <linearGradient
       id="020eb5d5-54d4-41de-b0d5-d50f19fba27c"
       x1="159.08"
       y1="155.14999"
       x2="236.22"
       y2="155.14999"
       gradientTransform="matrix(0.96,0.27,0.27,-0.96,-185.47,128.55408)"
       gradientUnits="userSpaceOnUse">
      <stop
         offset="0.13"
         stop-color="#2483c5"
         id="stop224" />
      <stop
         offset="0.17"
         stop-color="#2486c7"
         id="stop226" />
      <stop
         offset="0.68"
         stop-color="#29b1df"
         id="stop228" />
      <stop
         offset="0.94"
         stop-color="#2bc2e8"
         id="stop230" />
    </linearGradient>
    <linearGradient
       id="ce17bf1b-c72a-4deb-b2b6-7bac2ede920e"
       x1="145.48"
       y1="165.94"
       x2="236.22"
       y2="165.94"
       xlink:href="#6e9f803d-2cc6-416d-91b9-0156e3abadb7"
       gradientTransform="translate(-119.23,-35.905917)" />
    <linearGradient
       id="897e37da-cb97-49b1-817e-69ebe86ce200"
       x1="145.74001"
       y1="169.62"
       x2="145.74001"
       y2="169.62"
       gradientTransform="matrix(0.96,0.27,0.27,-0.96,-66.24,164.46)"
       gradientUnits="userSpaceOnUse">
      <stop
         offset="0"
         stop-color="#682c90"
         id="stop234" />
      <stop
         offset="0.5"
         stop-color="#817cb9"
         id="stop236" />
      <stop
         offset="1"
         stop-color="#fff"
         id="stop238" />
    </linearGradient>
    <linearGradient
       id="c8a3fcfa-4f17-44ce-89be-7ddc504b1655"
       x1="222.66"
       y1="173.48"
       x2="176.7"
       y2="173.48"
       xlink:href="#897e37da-cb97-49b1-817e-69ebe86ce200"
       gradientTransform="translate(-119.23,-35.905917)" />
    <linearGradient
       id="bb2bb411-793e-4d93-8d61-3615f402bf79"
       x1="222.66"
       y1="168.12"
       x2="176.7"
       y2="168.12"
       xlink:href="#897e37da-cb97-49b1-817e-69ebe86ce200"
       gradientTransform="translate(-119.23,-35.905917)" />
    <linearGradient
       id="5ba00cc6-37bf-4e88-8295-b79b5e3982aa"
       x1="222.66"
       y1="172.66"
       x2="176.7"
       y2="172.66"
       xlink:href="#897e37da-cb97-49b1-817e-69ebe86ce200"
       gradientTransform="translate(-119.23,-35.905917)" />
    <linearGradient
       id="ba7b456e-02ef-478f-b9a2-9b56141000d5"
       x1="148.32001"
       y1="139.09"
       x2="221.87"
       y2="139.09"
       gradientTransform="matrix(0.96,0.27,0.27,-0.96,-185.47,128.55408)"
       gradientUnits="userSpaceOnUse">
      <stop
         offset="0.13"
         stop-color="#3b67ad"
         id="stop244" />
      <stop
         offset="0.57"
         stop-color="#227caa"
         id="stop246" />
      <stop
         offset="0.94"
         stop-color="#118aa8"
         id="stop248" />
    </linearGradient>
    <linearGradient
       id="ef0d28d4-6870-47b9-bd49-462cd818052b"
       x1="222.66"
       y1="172.99001"
       x2="176.7"
       y2="172.99001"
       xlink:href="#897e37da-cb97-49b1-817e-69ebe86ce200"
       gradientTransform="translate(-119.23,-35.905917)" />
    <linearGradient
       id="cbc2a39f-f3ff-4c36-a61e-f7f33cbfe39b"
       x1="145.50999"
       y1="155.53"
       x2="236.25"
       y2="155.53"
       xlink:href="#6e9f803d-2cc6-416d-91b9-0156e3abadb7"
       gradientTransform="translate(-119.23,-35.905917)" />
    <linearGradient
       id="28a71069-948e-45a2-b54d-fc8fce0bd909"
       x1="145.50999"
       y1="155.53"
       x2="219.34"
       y2="155.53"
       gradientTransform="matrix(0.96,0.27,0.27,-0.96,-185.47,128.55408)"
       gradientUnits="userSpaceOnUse">
      <stop
         offset="0.13"
         stop-color="#3a67b0"
         id="stop253" />
      <stop
         offset="0.56"
         stop-color="#357fbd"
         id="stop255" />
      <stop
         offset="0.94"
         stop-color="#3290c6"
         id="stop257" />
    </linearGradient>
    <linearGradient
       id="64f03583-7914-4d53-9227-5713c23acf2e"
       x1="236.25"
       y1="165.69"
       x2="312.62"
       y2="165.69"
       gradientTransform="matrix(0.96,0.27,0.27,-0.96,-185.47,128.55408)"
       gradientUnits="userSpaceOnUse">
      <stop
         offset="0.17"
         stop-color="#4e5ca8"
         id="stop260" />
      <stop
         offset="0.99"
         stop-color="#1fc3f3"
         id="stop262" />
    </linearGradient>
    <linearGradient
       inkscape:collect="always"
       xlink:href="#6e9f803d-2cc6-416d-91b9-0156e3abadb7"
       id="linearGradient4343"
       gradientUnits="userSpaceOnUse"
       gradientTransform="matrix(0.96,0.27,0.27,-0.96,-185.47,128.55408)"
       x1="145.48"
       y1="170.03999"
       x2="236.22"
       y2="170.03999" />
    <linearGradient
       inkscape:collect="always"
       xlink:href="#897e37da-cb97-49b1-817e-69ebe86ce200"
       id="linearGradient4345"
       gradientUnits="userSpaceOnUse"
       gradientTransform="matrix(0.96,0.27,0.27,-0.96,-185.47,128.55408)"
       x1="145.74001"
       y1="169.62"
       x2="145.74001"
       y2="169.62" />
  </defs>
  <title
     id="title267">fluent-bit</title>
  <path
     class="5313474d-7b00-4001-8cfb-d0bdc431e9d5"
     d="m 166.25,26.464083 c -3.83,-0.46 -12.27,-0.77 -29,2.76 a 19.86,19.86 0 0 1 -6,0.61 30.1,30.1 0 0 1 -6.44,-1.38 c -9.2,-3.07 -16.72,-2.15 -21.17,0.15 v 0 a 21,21 0 0 0 -6.59,5.83 c -2.76,3.68 -8.59,15.18 -16.41,18.1 v 0 c -4.45,2.91 -9.2,5.83 -13.5,10 -2.61,2.76 -3.37,9.2 -10.43,15.64 v 0 A 98.11,98.11 0 0 1 30.79,103.94408 c -13.19,9.2 -24.39,12.12 -24.39,12.12 0,0 29.45,8.13 61.81,-7.06 24.54,-11.499997 37.27,-33.999997 40.18,-39.109997 l 16,-27.15 c 1.38,-2.45 4,-5.67 6.44,-6.9 0.77,-0.46 1.53,-0.77 1.69,-0.92 1.84,-0.92 3.68,-1.53 5.52,-2.3 11.2,-4 22.85,-4.29 28.22,-4.91 a 0.67,0.67 0 0 0 -0.01,-1.25 z"
     id="path287"
     inkscape:connector-curvature="0"
     style="fill:url(#ba62b45c-1b7a-4ca2-ab5f-0a706f9c25a3)" />
  <path
     class="01efb410-0dd1-4f90-a174-5c04be878ee5"
     d="m 166.25,26.464083 c -3.83,-0.46 -12.27,-0.77 -29,2.76 a 19.86,19.86 0 0 1 -6,0.61 30.1,30.1 0 0 1 -6.44,-1.38 c -9.36,-3.07 -16.56,-2.3 -21.17,0.15 a 21,21 0 0 0 -6.59,5.83 c -2.76,3.68 -8.59,15.18 -16.41,18.1 v 0 c -8.87,-8.44 -16.69,-15.34 -24.2,-21.63 -4.29,-3.37 -8.44,-6.59 -12,-8.9 A 204.44,204.44 0 0 0 16.99,5.7440834 c -4.14,-1.84 -8.44,-3.53 -13,-5.36999997 -2,-0.61 -3.22,0.31 -3.53,1.99999997 a 8.41,8.41 0 0 0 0.46,4.45 121.26,121.26 0 0 0 8.74,18.2699996 v 0 c 1.38,2.45 2.91,4.91 4.45,7.36 a 185.36,185.36 0 0 0 26.07,32.36 66.81,66.81 0 0 0 6.13,5.37 90,90 0 0 0 8,6 c 0.31,0.15 1.53,0.92 2.45,1.53 1.84,0.92 4.14,2.15 5.67,2.76 a 46.08,46.08 0 0 0 19.63,4.14 c 9.82,0.31 17.94,-2.91 21.78,-8.13 1.53,-2.15 3.22,-4.6 4.6,-6.9 l 16,-27.15 c 1.38,-2.45 4,-5.67 6.44,-6.9 0.77,-0.46 1.53,-0.77 1.69,-0.92 1.69,-0.77 1.69,-0.46 3.53,-1.23 11.35,-4 25,-5.37 30.37,-6 0.4,0 0.24,-0.77 -0.22,-0.92 z"
     id="path289"
     inkscape:connector-curvature="0"
     style="fill:url(#c6c6a081-ecb7-45ef-9527-9abc9ba57229)" />
  <path
     class="19a65966-0460-499c-99a1-b369388a0646"
     d="m 0,3.6040834 c 0,-0.31 0.15,-0.46 0,-0.77 z"
     id="path291"
     inkscape:connector-curvature="0"
     style="opacity:0.8;isolation:isolate;fill:url(#linearGradient4343)" />
  <path
     class="55184b11-d7e2-4d0e-9032-2a3f8db8786a"
     d="m 7.51,1.9240834 v 0 c -0.31,-0.15 -0.31,-0.15 -0.46,-0.15 0.31,0.15 0.46,0.31 0.77,0.31 a 0.54,0.54 0 0 0 -0.31,-0.16 z"
     id="path293"
     inkscape:connector-curvature="0"
     style="opacity:0.8;isolation:isolate;fill:url(#cbbfb65d-6fb3-4a15-97f8-f19d85cd2f74)" />
  <path
     class="79a5b38b-0f00-46e2-b4ee-2c16c6300af6"
     d="m 10.27,2.9940834 a 0.54,0.54 0 0 1 -0.31,-0.15 c 0.31,0.15 0.46,0.31 0.77,0.31 a 0.67,0.67 0 0 1 -0.46,-0.16 z"
     id="path295"
     inkscape:connector-curvature="0"
     style="opacity:0.8;isolation:isolate;fill:url(#56a87ca8-5cee-49b0-b4ae-ccc3f1248e4d)" />
  <path
     class="388e342c-d74a-4086-9856-3aab0265e90e"
     d="m 62.42,54.224083 a 37,37 0 0 0 17.94,-1.84 v 0 c -5.37,-4.91 -10.43,-9.51 -15.18,-13.65 v 0 c -2.45,-2 -4.75,-4.14 -6.9,-6 -0.15,-0.15 -0.31,-0.15 -0.31,-0.31 a 16.3,16.3 0 0 1 -1.68,-1.33 l -0.31,-0.31 c -4.29,-3.37 -8.44,-6.44 -11.81,-8.9 A 220.46,220.46 0 0 0 16.87,5.6240834 c -0.77,-0.46 -1.53,-0.77 -2.45,-1.23 -0.31,-0.15 -0.46,-0.31 -0.77,-0.31 C 49.08,23.544083 60.43,40.874083 62.42,54.224083 Z"
     id="path297"
     inkscape:connector-curvature="0"
     style="fill:url(#020eb5d5-54d4-41de-b0d5-d50f19fba27c)" />
  <path
     class="97236337-f545-4f39-8742-207207450e11"
     d="m 1.38,8.6740834 v 0 c -0.31,-0.46 -0.46,-1.23 -0.77,-1.84 0.31,0.61 0.46,1.26 0.77,1.84 z"
     id="path299"
     inkscape:connector-curvature="0"
     style="opacity:0.8;isolation:isolate;fill:url(#ce17bf1b-c72a-4deb-b2b6-7bac2ede920e)" />
  <path
     class="22722a55-f647-4637-99cc-60918a2764ac"
     d="m 0,3.7640834 c 0,-0.15 0,-0.15 0.15,-0.15 z"
     id="path301"
     inkscape:connector-curvature="0"
     style="opacity:0.3;isolation:isolate;fill:url(#linearGradient4345)" />
  <path
     class="c67ccf0e-3e36-4f55-bb9c-94ccddf284e7"
     d="M 3.83,0.54408343 C 5.06,1.0040834 6.13,1.3140834 7.05,1.7740834 A 27.65,27.65 0 0 0 3.83,0.54408343 Z"
     id="path303"
     inkscape:connector-curvature="0"
     style="opacity:0.3;isolation:isolate;fill:url(#c8a3fcfa-4f17-44ce-89be-7ddc504b1655)" />
  <path
     class="3f5c3919-4d9f-494d-b321-e017b2313f93"
     d="m 0,3.7640834 a 9,9 0 0 0 0.61,3.07 v 0 a 9,9 0 0 1 -0.61,-3.07 z"
     id="path305"
     inkscape:connector-curvature="0"
     style="opacity:0.3;isolation:isolate;fill:url(#bb2bb411-793e-4d93-8d61-3615f402bf79)" />
  <path
     class="dad0ec1f-c046-42c9-ad2d-379cecc11379"
     d="m 13.19,4.2240834 c 0.15,0.15 0.31,0.15 0.46,0.31 v 0 c -0.92,-0.46 -2,-0.92 -3.07,-1.38 l 0.92,0.46 a 7.48,7.48 0 0 1 1.69,0.61 z"
     id="path307"
     inkscape:connector-curvature="0"
     style="opacity:0.3;isolation:isolate;fill:url(#5ba00cc6-37bf-4e88-8295-b79b5e3982aa)" />
  <path
     class="2b8e6961-320c-4bfe-876d-be4e189c40ca"
     d="m 23.62,35.514083 c -9.51,-7.67 -18.56,-18.25 -22.39,-26.8399996 8.9,22.5499996 32.05,54.4499996 52.61,67.6399996 a 23.53,23.53 0 0 0 2.61,1.53 c 2.61,-4.14 7.52,-12.58 5.83,-23.62 -12.59,-1.69 -26.24,-8.59 -38.66,-18.71 z"
     id="path309"
     inkscape:connector-curvature="0"
     style="fill:url(#ba7b456e-02ef-478f-b9a2-9b56141000d5)" />
  <path
     class="aaaa1a10-fea0-4800-9d33-be1b198e273c"
     d="m 9.77,2.9940834 c -0.61,-0.31 -1.23,-0.46 -1.84,-0.77 0.15,0 0.15,0.15 0.31,0.15 a 4,4 0 0 1 1.53,0.62 z"
     id="path311"
     inkscape:connector-curvature="0"
     style="opacity:0.3;isolation:isolate;fill:url(#ef0d28d4-6870-47b9-bd49-462cd818052b)" />
  <path
     class="fb10ef4c-c4be-43a8-8fbf-d5b26e37bb35"
     d="m 23.62,35.514083 c 12.42,10.12 26.07,16.87 38.8,18.56 -2,-13.19 -13.34,-30.67 -48.77,-49.6899996 -0.15,-0.15 -0.46,-0.15 -0.46,-0.31 -0.46,-0.31 -1.07,-0.46 -1.53,-0.77 l -0.92,-0.46 c -0.31,-0.15 -0.46,-0.31 -0.77,-0.31 a 5.49,5.49 0 0 0 -1.69,-0.61 c -0.15,0 -0.15,-0.15 -0.31,-0.15 -0.31,-0.15 -0.46,-0.31 -0.77,-0.31 -1.07,-0.31 -2.15,-0.91999997 -3.22,-1.22999997 A 2.65,2.65 0 0 0 0.3,2.0940834 c 0,0.15 -0.15,0.31 -0.15,0.46 -0.15,0.15 0,0.46 0,0.77 0,0.15 0,0.15 -0.15,0.15 v 0 a 9,9 0 0 0 0.61,3.07 v 0 a 9.38,9.38 0 0 0 0.77,1.84 C 5.21,17.254083 14.26,27.994083 23.62,35.514083 Z"
     id="path313"
     inkscape:connector-curvature="0"
     style="opacity:0.8;isolation:isolate;fill:url(#cbc2a39f-f3ff-4c36-a61e-f7f33cbfe39b)" />
  <path
     class="e2b74e7a-af5c-4338-810a-9836156af306"
     d="m 23.62,35.514083 c 12.42,10.12 26.07,16.87 38.8,18.56 -2,-13.19 -13.34,-30.67 -48.77,-49.6899996 -0.15,-0.15 -0.46,-0.15 -0.46,-0.31 -0.46,-0.31 -1.07,-0.46 -1.53,-0.77 l -0.92,-0.46 c -0.31,-0.15 -0.46,-0.31 -0.77,-0.31 a 5.49,5.49 0 0 0 -1.69,-0.61 c -0.15,0 -0.15,-0.15 -0.31,-0.15 -0.31,-0.15 -0.46,-0.31 -0.77,-0.31 -1.07,-0.31 -2.15,-0.91999997 -3.22,-1.22999997 A 2.65,2.65 0 0 0 0.3,2.0940834 c 0,0.15 -0.15,0.31 -0.15,0.46 -0.15,0.15 0,0.46 0,0.77 0,0.15 0,0.15 -0.15,0.15 v 0 a 9,9 0 0 0 0.61,3.07 v 0 a 9.38,9.38 0 0 0 0.77,1.84 C 5.21,17.254083 14.26,27.994083 23.62,35.514083 Z"
     id="path315"
     inkscape:connector-curvature="0"
     style="fill:url(#28a71069-948e-45a2-b54d-fc8fce0bd909)" />
  <path
     class="8d0e61ff-e827-4a82-b1a2-99efd9aea4ab"
     d="m 166.25,26.464083 c -3.83,-0.46 -12.27,-0.77 -29,2.76 a 19.86,19.86 0 0 1 -6,0.61 30.1,30.1 0 0 1 -6.44,-1.38 33,33 0 0 0 -13.5,-2 17.13,17.13 0 0 0 -8.74,3.07 19,19 0 0 0 -5.37,5.21 c -2.76,3.68 -8.59,15.18 -16.41,18.1 v 0 c 6.29,5.83 15.8,10.74 24.85,7.82 8.59,-2.91 14,-10.43 15.64,-13 a 86.65,86.65 0 0 1 5.71,-7.56 24.34,24.34 0 0 1 10.58,-6.59 c 10.12,-3.37 25.46,-5.37 29.14,-5.83 a 1,1 0 0 0 -0.46,-1.21 z"
     id="path317"
     inkscape:connector-curvature="0"
     style="fill:url(#64f03583-7914-4d53-9227-5713c23acf2e)" />
  <circle
     class="50a128f9-547f-4a1a-8db8-8dc1690431f7"
     cx="-4.0850887"
     cy="121.96374"
     r="2.6099999"
     transform="rotate(-74.62)"
     id="circle319"
     style="fill:#ffffff" />
</svg>
