<svg width="164px" height="117px" viewBox="0 0 164 117" version="1.1" xmlns="http://www.w3.org/2000/svg" xmlns:xlink="http://www.w3.org/1999/xlink">
    <g id="Page-1" stroke="none" stroke-width="1" fill="none" fill-rule="evenodd">
        <g transform="translate(-138.000000, 0.000000)" fill="#EE2E24" fill-rule="nonzero">
            <path d="M284.026303,116.60704 C293.083354,113.530596 300.130462,103.103502 301.828659,89.9855444 L301.828659,86.1953654 L255.394864,86.1953654 L255.394864,116.60704 L284.026303,116.60704 L284.026303,116.60704 Z M301.831153,30.4280823 L301.831153,26.9988727 C300.050917,13.3148497 292.478763,2.53498987 282.822831,0 L255.397358,0 L255.397358,30.4280823 L301.831153,30.4280823 L301.831153,30.4280823 Z M138.381701,86.1970062 L138.381701,89.9543698 C140.06349,103.080531 147.110598,113.532237 156.19226,116.608681 L184.67603,116.608681 L184.67603,86.1970062 L138.381701,86.1970062 L138.381701,86.1970062 Z M157.38346,0.00406910995 C147.743935,2.53905898 140.147169,13.3271227 138.383341,27.0275533 L138.383341,30.4321514 L184.677671,30.4321514 L184.677671,0.00406910995 L157.38346,0.00406910995 Z M301.834434,43.0981093 L255.400639,43.0981093 L255.400639,73.5261916 L301.834434,73.5261916 L301.834434,43.0981093 Z M197.32558,116.604612 L242.750302,116.604612 L242.750302,86.1929371 L197.32558,86.1929371 L197.32558,116.604612 Z M242.750302,0.00328154028 L197.32558,0.00328154028 L197.32558,30.4313638 L242.750302,30.4313638 L242.750302,0.00328154028 Z M138.380913,73.5261916 L184.675243,73.5261916 L184.675243,43.0981093 L138.380913,43.0981093 L138.380913,73.5261916 Z" id="path4408"></path>
        </g>
    </g>
</svg>