<svg width="119px" height="95px" viewBox="0 0 119 95" version="1.1" xmlns="http://www.w3.org/2000/svg" xmlns:xlink="http://www.w3.org/1999/xlink">
    <g id="Page-1" stroke="none" stroke-width="1" fill="none" fill-rule="evenodd">
        <g id="Gauge" transform="translate(-5.000000, -7.000000)">
            <g id="Group" transform="translate(10.000000, 12.000000)" fill="#FFFFFF" stroke-width="9">
                <path d="M88.7762863,12.1256699 C79.4133412,4.54263694 67.4871654,0 54.5,0 C24.4004811,0 -2.13162821e-14,24.4004811 -2.13162821e-14,54.5 C-2.13162821e-14,65.6548909 3.35127399,76.0270498 9.10191952,84.6645743" id="green" stroke="#1B9D64" stroke-linecap="round"></path>
                <path d="M99.9941042,84.5198471 C105.151142,76.7202451 108.356167,67.5168553 108.912984,57.6058715 C108.970736,56.5779338 109,55.5423844 109,54.5" id="red" stroke="#E5475C" stroke-linecap="round"></path>
                <path d="M108.912984,57.6058715 C108.970736,56.5779338 109,55.5423844 109,54.5 C109,37.3876466 101.113237,22.1173452 88.7762863,12.1256699" id="yellow" stroke="#F1DD19"></path>
            </g>
            <path d="M61,83.0644936 C65.418278,83.0644936 89.5955001,50.0015001 87.594,48 C85.5924999,45.9984999 53,70.6462156 53,75.0644936 C53,79.4827716 56.581722,83.0644936 61,83.0644936 Z" id="needle" fill="#000000"></path>
        </g>
    </g>
</svg>