<svg xmlns="http://www.w3.org/2000/svg" viewBox="0 0 175.37 60.01"><title>Asset 1</title><g id="Layer_2" data-name="Layer 2"><g id="Logo"><path d="M84.54,7.86V4.63h-3V7.86H80.08V.11h1.51V3.36h3V.11H86V7.86Zm7,0h-1.2l-.11-.38A3.28,3.28,0,0,1,88.53,8C87.47,8,87,7.27,87,6.31c0-1.14.51-1.57,1.7-1.57h1.4V4.15c0-.62-.18-.84-1.11-.84a8.46,8.46,0,0,0-1.61.17l-.18-1.07a7.89,7.89,0,0,1,2-.26c1.83,0,2.37.62,2.37,2ZM90.11,5.75H89c-.48,0-.61.13-.61.55s.13.56.59.56a2.37,2.37,0,0,0,1.1-.29ZM94.63,8a7.12,7.12,0,0,1-2-.32l.2-1.07a6.77,6.77,0,0,0,1.73.24c.65,0,.74-.14.74-.56s-.07-.52-1-.73c-1.42-.33-1.59-.68-1.59-1.76s.51-1.62,2.18-1.62a8,8,0,0,1,1.75.2l-.14,1.11a10.66,10.66,0,0,0-1.6-.16c-.63,0-.74.14-.74.48s0,.48.82.68c1.63.41,1.78.62,1.78,1.77S96.38,8,94.63,8Zm6.68-.11V4c0-.3-.13-.45-.47-.45A4.14,4.14,0,0,0,99.32,4V7.86H97.86V0l1.46.22V2.69a5.31,5.31,0,0,1,2.13-.54c1,0,1.32.65,1.32,1.65V7.86ZM104,1.48V.11h1.46V1.48Zm0,6.38V2.27h1.46V7.86Zm2.62-5.54c0-1.4.85-2.22,2.83-2.22a9.37,9.37,0,0,1,2.16.25l-.17,1.25a12.21,12.21,0,0,0-1.95-.2c-1,0-1.37.34-1.37,1.16V5.5c0,.81.33,1.16,1.37,1.16a12.21,12.21,0,0,0,1.95-.2l.17,1.25a9.37,9.37,0,0,1-2.16.25c-2,0-2.83-.81-2.83-2.22ZM114.83,8c-2,0-2.53-1.06-2.53-2.2V4.36c0-1.15.54-2.2,2.53-2.2s2.53,1.06,2.53,2.2V5.77C117.36,6.92,116.82,8,114.83,8Zm0-4.63c-.78,0-1.08.33-1.08,1v1.5c0,.63.3,1,1.08,1s1.08-.33,1.08-1V4.31C115.9,3.68,115.61,3.35,114.83,3.35Zm6.64.09a11.57,11.57,0,0,0-1.54.81v3.6h-1.46V2.27h1.23l.1.62a6.63,6.63,0,0,1,1.53-.73ZM127.3,6a1.73,1.73,0,0,1-1.92,2,8.36,8.36,0,0,1-1.55-.16V10.1l-1.46.22v-8h1.16l.14.47a3.15,3.15,0,0,1,1.84-.59c1.17,0,1.79.67,1.79,1.94Zm-3.48.63a6.72,6.72,0,0,0,1.29.15c.53,0,.73-.24.73-.75v-2c0-.46-.18-.71-.72-.71a2.11,2.11,0,0,0-1.3.51Z"/><path d="M0,0,29.89,60,60,0Zm33.45,12h3.48v3.48H33.45ZM26.52,26H23V22.49h3.48Zm0-5.22H23V17.27h3.48Zm0-5.22H23V12.05h3.48Zm5.22,15.65H28.26V27.7h3.48Zm0-5.22H28.26V22.49h3.48Zm0-5.22H28.26V17.27h3.48Zm0-5.22H28.26V12.05h3.48Zm1.71,1.74h3.48v3.48H33.45Zm0,8.7V22.49H37V26Z"/><path d="M101.83,14.1h6.29l-9.55,32H89.64l-9.55-32h6.29L94.1,40.74Z"/><path d="M125.59,46.07h-4.8l-.43-1.58a12.79,12.79,0,0,1-7,2.06c-4.27,0-6.1-2.93-6.1-7,0-4.75,2.06-6.58,6.82-6.58h5.62V30.56c0-2.59-.72-3.5-4.46-3.5a32.66,32.66,0,0,0-6.48.72l-.72-4.46a30.5,30.5,0,0,1,8-1.1c7.35,0,9.5,2.59,9.5,8.45Zm-5.86-8.83h-4.32c-1.92,0-2.45.53-2.45,2.3s.53,2.35,2.35,2.35a9.22,9.22,0,0,0,4.42-1.2Z"/><path d="M134.81,22.69V39c0,1.25.53,1.87,1.87,1.87a16.15,16.15,0,0,0,6.1-2V22.69h5.86V46.07h-4.47l-.58-2a23.42,23.42,0,0,1-9.36,2.45c-3.89,0-5.28-2.74-5.28-6.91V22.69Z"/><path d="M151.75,46.07V13.14l5.86-.82V46.07Z"/><path d="M175.08,45.64a16.24,16.24,0,0,1-5.14.91c-4.27,0-6.43-2-6.43-6.19v-13H160V22.69h3.5V16.88l5.86-.82v6.63h6L175,27.35h-5.62V39.59a1.84,1.84,0,0,0,2.11,2.06,11.27,11.27,0,0,0,2.93-.48Z"/></g></g></svg>