<svg width="86px" height="108px" viewBox="0 0 86 108" version="1.1" xmlns="http://www.w3.org/2000/svg" xmlns:xlink="http://www.w3.org/1999/xlink">
    <g id="Page-1" stroke="none" stroke-width="1" fill="none" fill-rule="evenodd">
        <g id="JSON-document">
            <rect id="Rectangle-Copy-2" stroke="#000000" stroke-width="2" fill="#FFFFFF" x="13" y="11" width="72" height="96" rx="6"></rect>
            <rect id="Rectangle-Copy" stroke="#000000" stroke-width="2" fill="#FFFFFF" x="7" y="6" width="72" height="96" rx="6"></rect>
            <rect id="Rectangle" stroke="#000000" stroke-width="2" fill="#FFFFFF" x="1" y="1" width="72" height="96" rx="6"></rect>
            <path d="M18.2578125,54.3613281 C16.5292882,53.8730444 15.2280317,53.0698298 14.3540039,51.9516602 C13.4799761,50.8334905 13.0429688,49.3564545 13.0429688,47.5205078 L13.0429688,44.6054688 C13.0429688,42.23241 12.0078229,41.0458984 9.9375,41.0458984 L9.9375,38.921875 C12.0078229,38.921875 13.0429688,37.7402462 13.0429688,35.3769531 L13.0429688,32.3300781 C13.0625001,30.5429598 13.4995074,29.1001031 14.3540039,28.0014648 C15.2085004,26.9028265 16.5097569,26.1044947 18.2578125,25.6064453 L18.8144531,27.2910156 C16.7734273,27.9453158 15.7529297,29.6494003 15.7529297,32.4033203 L15.7529297,35.3623047 C15.7529297,37.5791126 14.9375082,39.122066 13.3066406,39.9912109 C14.9375082,40.8701216 15.7529297,42.4277232 15.7529297,44.6640625 L15.7529297,47.6816406 C15.7822267,50.3672009 16.8027243,52.0322233 18.8144531,52.6767578 L18.2578125,54.3613281 Z M28.7460938,47.5791016 C28.7460938,47.1103492 28.8852525,46.7197281 29.1635742,46.4072266 C29.4418959,46.094725 29.8593722,45.9384766 30.4160156,45.9384766 C30.972659,45.9384766 31.3950181,46.094725 31.6831055,46.4072266 C31.9711928,46.7197281 32.1152344,47.1103492 32.1152344,47.5791016 C32.1152344,48.0283226 31.9711928,48.4042954 31.6831055,48.7070312 C31.3950181,49.0097671 30.972659,49.1611328 30.4160156,49.1611328 C29.8593722,49.1611328 29.4418959,49.0097671 29.1635742,48.7070312 C28.8852525,48.4042954 28.7460938,48.0283226 28.7460938,47.5791016 Z M35.1474609,47.5791016 C35.1474609,47.1103492 35.2866197,46.7197281 35.5649414,46.4072266 C35.8432631,46.094725 36.2607394,45.9384766 36.8173828,45.9384766 C37.3740262,45.9384766 37.7963853,46.094725 38.0844727,46.4072266 C38.37256,46.7197281 38.5166016,47.1103492 38.5166016,47.5791016 C38.5166016,48.0283226 38.37256,48.4042954 38.0844727,48.7070312 C37.7963853,49.0097671 37.3740262,49.1611328 36.8173828,49.1611328 C36.2607394,49.1611328 35.8432631,49.0097671 35.5649414,48.7070312 C35.2866197,48.4042954 35.1474609,48.0283226 35.1474609,47.5791016 Z M41.2265625,47.5791016 C41.2265625,47.1103492 41.3657213,46.7197281 41.644043,46.4072266 C41.9223647,46.094725 42.339841,45.9384766 42.8964844,45.9384766 C43.4531278,45.9384766 43.8754868,46.094725 44.1635742,46.4072266 C44.4516616,46.7197281 44.5957031,47.1103492 44.5957031,47.5791016 C44.5957031,48.0283226 44.4516616,48.4042954 44.1635742,48.7070312 C43.8754868,49.0097671 43.4531278,49.1611328 42.8964844,49.1611328 C42.339841,49.1611328 41.9223647,49.0097671 41.644043,48.7070312 C41.3657213,48.4042954 41.2265625,48.0283226 41.2265625,47.5791016 Z M54.3515625,52.6767578 C56.3339943,52.041989 57.3593747,50.4257942 57.4277344,47.828125 L57.4277344,44.6054688 C57.4277344,42.3495981 58.3115146,40.8115275 60.0791016,39.9912109 C58.3115146,39.1904257 57.4277344,37.6523551 57.4277344,35.3769531 L57.4277344,32.4033203 C57.4277344,29.6494003 56.4072368,27.9453158 54.3662109,27.2910156 L54.9228516,25.6064453 C56.6513758,26.094729 57.950191,26.8881781 58.8193359,27.9868164 C59.6884809,29.0854547 60.1279296,30.5380769 60.1376953,32.3447266 L60.1376953,35.4208984 C60.1376953,37.7548945 61.1728412,38.921875 63.2431641,38.921875 L63.2431641,41.0458984 C61.1728412,41.0458984 60.1376953,42.23241 60.1376953,44.6054688 L60.1376953,47.5644531 C60.1376953,49.4003998 59.6958052,50.8701117 58.8120117,51.9736328 C57.9282182,53.077154 56.6318445,53.8730444 54.9228516,54.3613281 L54.3515625,52.6767578 Z" id="{…}" fill="#1C1E21" fill-rule="nonzero"></path>
            <path d="M19.265625,76.78125 L21.7265625,76.78125 L21.7265625,86.7519531 C21.7265625,88.112637 21.3017621,89.1933554 20.4521484,89.9941406 C19.6025348,90.7949259 18.4811268,91.1953125 17.0878906,91.1953125 C15.6035082,91.1953125 14.4576863,90.8209673 13.6503906,90.0722656 C12.8430949,89.323564 12.4394531,88.2819077 12.4394531,86.9472656 L14.9003906,86.9472656 C14.9003906,87.7024777 15.0875632,88.2705059 15.4619141,88.6513672 C15.8362649,89.0322285 16.3782517,89.2226562 17.0878906,89.2226562 C17.7519564,89.2226562 18.2809225,89.0029319 18.6748047,88.5634766 C19.0686869,88.1240212 19.265625,87.516931 19.265625,86.7421875 L19.265625,76.78125 Z M31.9804688,87.3378906 C31.9804688,86.7128875 31.7607444,86.2311215 31.3212891,85.8925781 C30.8818337,85.5540348 30.0891984,85.2122413 28.9433594,84.8671875 C27.7975203,84.5221337 26.8860711,84.1380229 26.2089844,83.7148438 C24.913405,82.9010376 24.265625,81.8398503 24.265625,80.53125 C24.265625,79.3854109 24.7327427,78.44141 25.6669922,77.6992188 C26.6012417,76.9570275 27.8137946,76.5859375 29.3046875,76.5859375 C30.2942758,76.5859375 31.1764284,76.7682273 31.9511719,77.1328125 C32.7259153,77.4973977 33.3346332,78.0165982 33.7773438,78.6904297 C34.2200543,79.3642612 34.4414062,80.111324 34.4414062,80.9316406 L31.9804688,80.9316406 C31.9804688,80.1894494 31.7477237,79.6084005 31.2822266,79.1884766 C30.8167294,78.7685526 30.151046,78.5585938 29.2851562,78.5585938 C28.4778605,78.5585938 27.8512392,78.7311181 27.4052734,79.0761719 C26.9593077,79.4212257 26.7363281,79.9029917 26.7363281,80.5214844 C26.7363281,81.0423203 26.9772111,81.4768863 27.4589844,81.8251953 C27.9407576,82.1735043 28.7350205,82.5120426 29.8417969,82.8408203 C30.9485732,83.169598 31.8372362,83.5439432 32.5078125,83.9638672 C33.1783888,84.3837912 33.6699203,84.8655572 33.9824219,85.4091797 C34.2949234,85.9528022 34.4511719,86.5891891 34.4511719,87.3183594 C34.4511719,88.5032611 33.9970749,89.4456345 33.0888672,90.1455078 C32.1806595,90.8453811 30.9485755,91.1953125 29.3925781,91.1953125 C28.3639271,91.1953125 27.4182986,91.0048847 26.5556641,90.6240234 C25.6930295,90.2431622 25.0224633,89.7174513 24.5439453,89.046875 C24.0654273,88.3762987 23.8261719,87.5950565 23.8261719,86.703125 L26.296875,86.703125 C26.296875,87.5104207 26.5637994,88.1354145 27.0976562,88.578125 C27.6315131,89.0208355 28.3964794,89.2421875 29.3925781,89.2421875 C30.2519574,89.2421875 30.8981098,89.0680356 31.3310547,88.7197266 C31.7639996,88.3714175 31.9804688,87.9108102 31.9804688,87.3378906 Z M47.9667969,84.2617188 C47.9667969,85.6549549 47.7259139,86.8772734 47.2441406,87.9287109 C46.7623674,88.9801485 46.0738977,89.7874321 45.1787109,90.3505859 C44.2835242,90.9137398 43.253261,91.1953125 42.0878906,91.1953125 C40.9355411,91.1953125 39.9085332,90.9137398 39.0068359,90.3505859 C38.1051387,89.7874321 37.4085311,88.9850312 36.9169922,87.9433594 C36.4254533,86.9016875 36.1764323,85.7005276 36.1699219,84.3398438 L36.1699219,83.5390625 C36.1699219,82.1523368 36.4156876,80.9283907 36.9072266,79.8671875 C37.3987655,78.8059843 38.0921179,77.9938179 38.9873047,77.4306641 C39.8824915,76.8675102 40.9094994,76.5859375 42.0683594,76.5859375 C43.2272193,76.5859375 44.2542273,76.864255 45.1494141,77.4208984 C46.0446008,77.9775418 46.7363257,78.7783151 47.2246094,79.8232422 C47.7128931,80.8681693 47.9602864,82.0839774 47.9667969,83.4707031 L47.9667969,84.2617188 Z M45.4960938,83.5195312 C45.4960938,81.9440025 45.1982452,80.7363323 44.6025391,79.8964844 C44.006833,79.0566364 43.1621148,78.6367188 42.0683594,78.6367188 C41.0006457,78.6367188 40.1656931,79.0550088 39.5634766,79.8916016 C38.96126,80.7281943 38.6536459,81.9114507 38.640625,83.4414062 L38.640625,84.2617188 C38.640625,85.8242266 38.9449839,87.0318968 39.5537109,87.8847656 C40.1624379,88.7376345 41.0071561,89.1640625 42.0878906,89.1640625 C43.1816461,89.1640625 44.023109,88.7474 44.6123047,87.9140625 C45.2015003,87.080725 45.4960938,85.8632893 45.4960938,84.2617188 L45.4960938,83.5195312 Z M61.7070312,91 L59.2363281,91 L52.8984375,80.9121094 L52.8984375,91 L50.4277344,91 L50.4277344,76.78125 L52.8984375,76.78125 L59.2558594,86.9082031 L59.2558594,76.78125 L61.7070312,76.78125 L61.7070312,91 Z" id="JSON" fill="#1C1E21" fill-rule="nonzero"></path>
        </g>
    </g>
</svg>