
<svg width="240px" height="166px" viewBox="0 0 240 166" version="1.1" xmlns="http://www.w3.org/2000/svg" xmlns:xlink="http://www.w3.org/1999/xlink">
    <g id="Page-1" stroke="none" stroke-width="1" fill="none" fill-rule="evenodd">
        <g id="mysql">
            <polygon id="Fill-1" fill="#FFFFFE" points="0 166 239.487 166 239.487 0.04 0 0.04"></polygon>
            <path d="M147.769,41.683 C146.975,41.683 146.415,41.779 145.85,41.918 L145.85,42.012 L145.941,42.012 C146.319,42.759 146.975,43.278 147.439,43.932 C147.816,44.681 148.144,45.428 148.518,46.176 C148.564,46.131 148.609,46.082 148.609,46.082 C149.269,45.616 149.596,44.867 149.596,43.742 C149.313,43.413 149.269,43.088 149.033,42.759 C148.753,42.292 148.144,42.058 147.769,41.683" id="Fill-3" fill="#5B7F93"></path>
            <path d="M73.308,134.068 L66.824,134.068 C66.596,123.125 65.964,112.835 64.931,103.196 L64.874,103.196 L55.003,134.068 L50.066,134.068 L40.255,103.196 L40.197,103.196 C39.47,112.453 39.012,122.743 38.821,134.068 L32.91,134.068 C33.292,120.295 34.248,107.384 35.778,95.332 L43.813,95.332 L53.167,123.794 L53.225,123.794 L62.636,95.332 L70.324,95.332 C72.008,109.447 73.002,122.362 73.308,134.068" id="Fill-4" fill="#196D80"></path>
            <path d="M101.426,105.489 C98.786,119.814 95.304,130.224 90.981,136.718 C87.613,141.722 83.924,144.224 79.906,144.224 C78.835,144.224 77.515,143.901 75.947,143.26 L75.947,139.807 C76.713,139.919 77.611,139.979 78.645,139.979 C80.519,139.979 82.029,139.461 83.179,138.427 C84.555,137.167 85.243,135.751 85.243,134.182 C85.243,133.11 84.706,130.911 83.637,127.584 L76.521,105.489 L82.891,105.489 L87.997,122.014 C89.145,125.766 89.623,128.385 89.432,129.878 C92.225,122.418 94.176,114.288 95.286,105.489 L101.426,105.489" id="Fill-5" fill="#196D80"></path>
            <polyline id="Fill-6" fill="#E6892E" points="187.73 134.068 169.311 134.068 169.311 95.332 175.509 95.332 175.509 129.303 187.73 129.303 187.73 134.068"></polyline>
            <path d="M141.423,126.319 C139.854,123.794 139.068,119.742 139.068,114.155 C139.068,104.401 142.034,99.521 147.963,99.521 C151.063,99.521 153.338,100.688 154.793,103.02 C156.36,105.546 157.146,109.563 157.146,115.072 C157.146,124.904 154.18,129.822 148.251,129.822 C145.152,129.822 142.876,128.656 141.423,126.319 M164.491,135.002 L157.371,131.491 C158.005,130.971 158.607,130.41 159.152,129.761 C162.175,126.207 163.688,120.947 163.688,113.983 C163.688,101.168 158.657,94.757 148.596,94.757 C143.661,94.757 139.815,96.382 137.061,99.637 C134.037,103.195 132.527,108.435 132.527,115.36 C132.527,122.169 133.865,127.164 136.543,130.337 C138.992,133.205 142.684,134.641 147.62,134.641 C149.463,134.641 151.154,134.414 152.691,133.96 L161.963,139.356 L164.491,135.002" id="Fill-7" fill="#E6892E"></path>
            <path d="M129.826,123.331 C129.826,126.616 128.619,129.313 126.213,131.423 C123.805,133.524 120.57,134.577 116.519,134.577 C112.73,134.577 109.058,133.365 105.501,130.96 L107.165,127.633 C110.226,129.163 112.996,129.927 115.483,129.927 C117.816,129.927 119.642,129.408 120.963,128.382 C122.281,127.349 123.071,125.908 123.071,124.08 C123.071,121.78 121.467,119.814 118.524,118.165 C115.807,116.674 110.377,113.561 110.377,113.561 C107.435,111.415 105.96,109.112 105.96,105.318 C105.96,102.18 107.06,99.644 109.257,97.714 C111.459,95.781 114.3,94.814 117.779,94.814 C121.375,94.814 124.645,95.774 127.59,97.686 L126.094,101.01 C123.574,99.942 121.089,99.406 118.639,99.406 C116.651,99.406 115.119,99.883 114.051,100.843 C112.977,101.795 112.313,103.02 112.313,104.513 C112.313,106.807 113.952,108.797 116.978,110.478 C119.729,111.97 125.292,115.143 125.292,115.143 C128.318,117.285 129.826,119.569 129.826,123.331" id="Fill-8" fill="#E6892E"></path>
            <path d="M195.508,82.357 C191.762,82.263 188.861,82.637 186.428,83.667 C185.726,83.948 184.604,83.948 184.508,84.837 C184.885,85.211 184.93,85.819 185.26,86.336 C185.82,87.272 186.801,88.533 187.692,89.191 C188.675,89.94 189.658,90.686 190.689,91.341 C192.513,92.469 194.573,93.121 196.349,94.245 C197.382,94.9 198.408,95.741 199.441,96.445 C199.954,96.82 200.279,97.429 200.937,97.66 L200.937,97.519 C200.607,97.099 200.515,96.49 200.189,96.02 C199.722,95.555 199.253,95.131 198.784,94.665 C197.426,92.84 195.739,91.25 193.918,89.94 C192.419,88.907 189.141,87.503 188.535,85.777 C188.535,85.777 188.486,85.727 188.44,85.681 C189.47,85.586 190.689,85.211 191.671,84.927 C193.26,84.507 194.711,84.602 196.349,84.182 C197.099,83.993 197.848,83.758 198.6,83.528 L198.6,83.104 C197.753,82.263 197.147,81.138 196.258,80.343 C193.873,78.284 191.249,76.274 188.535,74.586 C187.082,73.65 185.21,73.044 183.665,72.246 C183.106,71.965 182.171,71.826 181.842,71.356 C180.999,70.326 180.529,68.971 179.922,67.752 C178.566,65.181 177.253,62.327 176.085,59.608 C175.243,57.784 174.728,55.96 173.698,54.274 C168.875,46.316 163.635,41.498 155.585,36.77 C153.853,35.785 151.794,35.365 149.596,34.85 C148.424,34.801 147.255,34.71 146.085,34.664 C145.335,34.335 144.585,33.445 143.931,33.024 C141.262,31.34 134.385,27.69 132.418,32.51 C131.154,35.554 134.29,38.548 135.367,40.093 C136.162,41.168 137.193,42.387 137.752,43.602 C138.08,44.398 138.174,45.242 138.503,46.083 C139.251,48.142 139.952,50.436 140.937,52.356 C141.45,53.339 142.011,54.37 142.666,55.255 C143.044,55.773 143.697,56.004 143.838,56.849 C143.185,57.784 143.134,59.188 142.76,60.359 C141.076,65.648 141.73,72.2 144.118,76.084 C144.865,77.254 146.646,79.829 149.033,78.844 C151.139,78.003 150.671,75.335 151.279,72.996 C151.419,72.431 151.325,72.06 151.605,71.686 L151.605,71.781 C152.26,73.089 152.917,74.35 153.525,75.664 C154.978,77.955 157.503,80.343 159.611,81.933 C160.731,82.778 161.621,84.227 163.025,84.743 L163.025,84.602 L162.933,84.602 C162.651,84.182 162.231,83.993 161.856,83.667 C161.014,82.824 160.08,81.794 159.422,80.859 C157.457,78.239 155.723,75.335 154.182,72.34 C153.431,70.886 152.777,69.296 152.168,67.846 C151.888,67.287 151.888,66.442 151.419,66.162 C150.715,67.191 149.688,68.081 149.174,69.341 C148.284,71.356 148.191,73.836 147.861,76.411 C147.675,76.46 147.769,76.411 147.675,76.504 C146.179,76.13 145.664,74.586 145.101,73.279 C143.697,69.952 143.461,64.617 144.68,60.779 C145.006,59.798 146.414,56.709 145.85,55.773 C145.567,54.88 144.632,54.37 144.118,53.665 C143.511,52.776 142.852,51.655 142.435,50.67 C141.311,48.05 140.746,45.147 139.533,42.527 C138.971,41.308 137.986,40.044 137.193,38.923 C136.302,37.659 135.32,36.77 134.617,35.274 C134.385,34.758 134.057,33.915 134.43,33.355 C134.522,32.98 134.712,32.839 135.087,32.744 C135.692,32.23 137.426,32.884 138.033,33.165 C139.766,33.865 141.217,34.524 142.666,35.505 C143.322,35.974 144.024,36.863 144.865,37.099 L145.85,37.099 C147.347,37.424 149.033,37.19 150.438,37.613 C152.917,38.408 155.163,39.578 157.177,40.842 C163.306,44.727 168.361,50.251 171.776,56.849 C172.339,57.924 172.575,58.908 173.089,60.029 C174.072,62.327 175.29,64.667 176.271,66.911 C177.253,69.111 178.191,71.356 179.597,73.184 C180.297,74.165 183.106,74.68 184.37,75.195 C185.304,75.615 186.757,75.99 187.6,76.504 C189.191,77.486 190.779,78.611 192.279,79.689 C193.026,80.25 195.367,81.419 195.508,82.357" id="Fill-9" fill="#196D80"></path>
            <path d="M192.154,134.064 L193.181,134.064 L193.181,130.123 L194.525,130.123 L194.525,129.318 L190.758,129.318 L190.758,130.123 L192.154,130.123 L192.154,134.064 Z M199.969,134.064 L200.937,134.064 L200.937,129.318 L199.481,129.318 L198.296,132.553 L197.006,129.318 L195.603,129.318 L195.603,134.064 L196.519,134.064 L196.519,130.452 L196.571,130.452 L197.922,134.064 L198.62,134.064 L199.969,130.452 L199.969,134.064 L199.969,134.064 Z" id="Fill-10" fill="#E6892E"></path>
        </g>
    </g>
</svg>