
<svg width="69px" height="73px" viewBox="0 0 69 73" version="1.1" xmlns="http://www.w3.org/2000/svg" xmlns:xlink="http://www.w3.org/1999/xlink">
    <g id="wazuh" stroke="none" stroke-width="1" fill="none" fill-rule="evenodd">
        <path d="M51.53,0 L42.61,18.76 L26.25,18.76 L16.48,0 L9.68,23.83 L0.34,34.49 L21.34,53.78 L29.53,72.65 L38.9,72.65 L46.64,54.11 L68.1,34.66 L58.54,24.17 L51.53,0 Z M41.07,50.34 C40.865907,50.6352411 40.5861247,50.8701202 40.26,51.02 C39.9256577,51.1657698 39.5647371,51.2406779 39.2,51.24 C38.8553163,51.2342117 38.5152879,51.1594055 38.2,51.02 C37.8820941,50.8698642 37.6120791,50.6344665 37.42,50.34 L34.26,45.56 L31,50.34 C30.8041558,50.6311681 30.5351516,50.8656846 30.22,51.02 C29.9043798,51.158388 29.5645583,51.2331488 29.22,51.24 C28.4820141,51.2884586 27.7725273,50.9469943 27.35,50.34 L11.16,35.25 L15.64,35.25 L29.32,47.25 L32.06,43 L36.36,43 L39.36,47.27 L53.22,34.77 L57.32,34.77 L41.07,50.34 Z" id="Shape" fill="#00A9E5" fill-rule="nonzero"></path>
    </g>
</svg>