<svg xmlns="http://www.w3.org/2000/svg" xmlns:xlink="http://www.w3.org/1999/xlink" version="1.0" x="0px" y="0px" viewBox="0 0 100 125" style="enable-background:new 0 0 100 100;" xml:space="preserve"><style type="text/css">
	.st0{fill:#1D1D1B;}
</style><path class="st0" d="M94.4,41.3v3l-2.6,1.5C91.6,46,91.4,46,91.2,46c-0.4,0-0.7-0.2-0.9-0.5C90,45,90.2,44.3,90.7,44l1.6-0.9v-1.8  c0-0.6,0.5-1.1,1.1-1.1C93.9,40.3,94.4,40.8,94.4,41.3z M93.3,32.2c-0.6,0-1.1,0.5-1.1,1.1v4c0,0.6,0.5,1.1,1.1,1.1  c0.6,0,1.1-0.5,1.1-1.1v-4C94.4,32.7,93.9,32.2,93.3,32.2z M93.3,24.1c-0.6,0-1.1,0.5-1.1,1.1v4c0,0.6,0.5,1.1,1.1,1.1  c0.6,0,1.1-0.5,1.1-1.1v-4C94.4,24.6,93.9,24.1,93.3,24.1z M91.8,16.6c-0.5-0.3-1.2-0.1-1.5,0.4c-0.3,0.5-0.1,1.2,0.4,1.5l0.5,0.3  L90.7,19c-0.5,0.3-0.7,1-0.4,1.5c0.2,0.3,0.6,0.5,0.9,0.5c0.2,0,0.4-0.1,0.5-0.1l0.5-0.3v0.6c0,0.6,0.5,1.1,1.1,1.1  c0.6,0,1.1-0.5,1.1-1.1v-3L91.8,16.6z M81.3,10.5l-3.5-2c-0.5-0.3-1.2-0.1-1.5,0.4c-0.3,0.5-0.1,1.2,0.4,1.5l3.5,2  c0.2,0.1,0.3,0.1,0.5,0.1c0.4,0,0.7-0.2,0.9-0.5C81.9,11.5,81.8,10.8,81.3,10.5z M83.7,14.4l3.5,2c0.2,0.1,0.3,0.1,0.5,0.1  c0.4,0,0.7-0.2,0.9-0.5c0.3-0.5,0.1-1.2-0.4-1.5l-3.5-2c-0.5-0.3-1.2-0.1-1.5,0.4C83,13.5,83.2,14.1,83.7,14.4z M74.3,6.5L71.7,5  L69,6.5c-0.5,0.3-0.7,1-0.4,1.5c0.3,0.5,0.9,0.7,1.5,0.4l1.6-0.9l1.6,0.9c0.2,0.1,0.3,0.1,0.5,0.1c0.4,0,0.7-0.2,0.9-0.5  C75,7.5,74.8,6.8,74.3,6.5z M55.6,16.6c0.2,0,0.4-0.1,0.5-0.1l3.5-2c0.5-0.3,0.7-1,0.4-1.5c-0.3-0.5-1-0.7-1.5-0.4l-3.5,2  c-0.5,0.3-0.7,1-0.4,1.5C54.9,16.4,55.2,16.6,55.6,16.6z M62.6,12.6c0.2,0,0.4-0.1,0.5-0.1l3.5-2c0.5-0.3,0.7-1,0.4-1.5  c-0.3-0.5-1-0.7-1.5-0.4l-3.5,2c-0.5,0.3-0.7,1-0.4,1.5C61.8,12.4,62.2,12.6,62.6,12.6z M74.7,54.5c0.3,0.5,0.1,1.2-0.4,1.5  l-1.6,0.9v25L50,95L27.3,81.9v-25L5.6,44.4V18.2L28.3,5.1L50,17.5l1.6-0.9c0.5-0.3,1.2-0.1,1.5,0.4c0.3,0.5,0.1,1.2-0.4,1.5  l-0.5,0.3l0.5,0.3c0.5,0.3,0.7,1,0.4,1.5c-0.2,0.3-0.6,0.5-0.9,0.5c-0.2,0-0.4-0.1-0.5-0.1l-0.5-0.3v0.6v4v4v4v4v4v1.8l1.6,0.9  c0,0,0.1,0.1,0.1,0.1l3.3,1.9c0.1,0,0.1,0,0.1,0.1l3.5,2c0,0,0.1,0.1,0.1,0.1l3.3,1.9c0.1,0,0.1,0,0.1,0.1l3.5,2  c0,0,0.1,0.1,0.1,0.1l3.3,1.9c0.1,0,0.1,0,0.1,0.1l0.5,0.3v-0.6c0-0.6,0.5-1.1,1.1-1.1c0.6,0,1.1,0.5,1.1,1.1v0.6l0.5-0.3  C73.7,53.8,74.4,54,74.7,54.5z M69.5,56.3L50,45L30.5,56.3L50,67.5L69.5,56.3z M48.9,20.6L29.4,31.9v22.5l19.5-11.3v-1.8v-4v-4v-4  v-4v-4V20.6z M28.3,7.5L8.8,18.7L28.3,30l19.5-11.3L28.3,7.5z M7.8,43.1l19.5,11.3V31.9L7.8,20.6V43.1z M29.4,80.6l19.5,11.3V69.4  L29.4,58.1V80.6z M70.6,80.6V58.1L51.1,69.4v22.5L70.6,80.6z M80.2,50.1l-3.5,2c-0.5,0.3-0.7,1-0.4,1.5c0.2,0.3,0.6,0.5,0.9,0.5  c0.2,0,0.4-0.1,0.5-0.1l3.5-2c0.5-0.3,0.7-1,0.4-1.5C81.4,49.9,80.7,49.8,80.2,50.1z M87.2,46l-3.5,2c-0.5,0.3-0.7,1-0.4,1.5  c0.2,0.3,0.6,0.5,0.9,0.5c0.2,0,0.4-0.1,0.5-0.1l3.5-2c0.5-0.3,0.7-1,0.4-1.5C88.4,45.9,87.7,45.7,87.2,46z M84.2,25  c0.2,0,0.4-0.1,0.5-0.1l3.5-2c0.5-0.3,0.7-1,0.4-1.5c-0.3-0.5-1-0.7-1.5-0.4l-3.5,2c-0.5,0.3-0.7,1-0.4,1.5  C83.5,24.9,83.9,25,84.2,25z M80.2,25.1l-3.5,2c-0.5,0.3-0.7,1-0.4,1.5c0.2,0.3,0.6,0.5,0.9,0.5c0.2,0,0.4-0.1,0.5-0.1l3.5-2  c0.5-0.3,0.7-1,0.4-1.5C81.4,25,80.7,24.8,80.2,25.1z M73.2,29.1L71.7,30l-1.6-0.9c-0.5-0.3-1.2-0.1-1.5,0.4  C68.3,30,68.5,30.7,69,31l1.6,0.9v1.8c0,0.6,0.5,1.1,1.1,1.1c0.6,0,1.1-0.5,1.1-1.1v-1.8l1.6-0.9c0.5-0.3,0.7-1,0.4-1.5  C74.4,29,73.7,28.8,73.2,29.1z M62,26.9l3.5,2c0.2,0.1,0.3,0.1,0.5,0.1c0.4,0,0.7-0.2,0.9-0.5c0.3-0.5,0.1-1.2-0.4-1.5l-3.5-2  c-0.5-0.3-1.2-0.1-1.5,0.4C61.3,26,61.5,26.6,62,26.9z M55,22.9l3.5,2c0.2,0.1,0.3,0.1,0.5,0.1c0.4,0,0.7-0.2,0.9-0.5  c0.3-0.5,0.1-1.2-0.4-1.5l-3.5-2c-0.5-0.3-1.2-0.1-1.5,0.4C54.4,21.9,54.5,22.6,55,22.9z M71.7,42.8c0.6,0,1.1-0.5,1.1-1.1v-4  c0-0.6-0.5-1.1-1.1-1.1s-1.1,0.5-1.1,1.1v4C70.6,42.3,71.1,42.8,71.7,42.8z M70.6,49.8c0,0.6,0.5,1.1,1.1,1.1s1.1-0.5,1.1-1.1v-4  c0-0.6-0.5-1.1-1.1-1.1s-1.1,0.5-1.1,1.1V49.8z"/></svg>