<?xml version="1.0" encoding="UTF-8"?>
<svg width="1200px" height="391px" viewBox="0 0 1200 391" version="1.1" xmlns="http://www.w3.org/2000/svg" xmlns:xlink="http://www.w3.org/1999/xlink">
    <!-- Generator: Sketch 50.2 (55047) - http://www.bohemiancoding.com/sketch -->
    <title>logo_horizontal_color</title>
    <desc>Created with Sketch.</desc>
    <defs></defs>
    <g id="Logz.io-logo" stroke="none" stroke-width="1" fill="none" fill-rule="evenodd">
        <g id="logo_horizontal_color" fill="#008AB1">
            <path d="M494.307848,276.561823 C487.7882,280.423956 470.632755,282.11519 462.17707,282.11519 C438.501977,282.11519 424.246453,269.796888 424.246453,248.790854 L424.246453,142.057044 L410.239138,140.605642 L410.239138,109.936005 L467.852804,109.936005 L467.852804,237.200319 C467.852804,244.440785 472.084784,247.579285 480.536332,247.579285 L489.480164,247.579285 L494.307848,276.561823 Z" id="Fill-1"></path>
            <path d="M547.487595,219.223989 C547.487595,245.587431 551.600181,251.394429 568.029839,251.394429 C582.767295,251.394429 586.627499,245.587431 586.627499,219.223989 C586.627499,192.616173 582.767295,186.568942 568.029839,186.568942 C551.600181,186.568942 547.487595,192.616173 547.487595,219.223989 M632.536207,219.223989 C632.536207,265.423176 615.142533,282.11519 568.029839,282.11519 C519.464913,282.11519 501.583025,265.423176 501.583025,219.223989 C501.583025,172.780428 519.464913,155.607949 568.029839,155.607949 C615.142533,155.607949 632.536207,172.780428 632.536207,219.223989" id="Fill-3"></path>
            <path d="M721.183729,186.586772 L706.923485,186.586772 C693.387427,186.586772 689.038176,189.726871 689.038176,200.858068 C689.038176,211.985122 693.871596,216.58342 706.923485,216.58342 C720.21539,216.58342 724.324624,211.748993 724.324624,200.617796 C724.324624,193.840484 723.116269,189.4866 721.183729,186.586772 Z M762.507814,186.586772 C767.101218,191.180928 768.309573,196.988869 768.309573,202.792667 C768.309573,228.19516 749.69594,241.501227 706.683469,241.501227 C700.641695,241.501227 690.461718,240.77627 690.246531,240.77627 C687.780163,240.767985 687.258749,242.201328 687.093221,242.764723 C685.404835,248.510525 690.031345,249.368046 701.879017,251.439351 L735.924004,256.501622 C764.212753,260.838936 771.206314,274.157432 771.206314,290.856298 C771.206314,312.62572 759.371057,328.595487 705.470976,328.595487 C686.625605,328.595487 665.5994,326.416473 647.962384,323.512503 L647.962384,293.996397 C669.224465,295.690725 686.100053,297.132354 705.92204,297.132354 C722.114824,297.132354 728.218672,296.647668 728.218672,290.603599 C728.462826,285.760886 722.743831,284.335828 710.093348,282.247952 L678.891305,277.309959 C658.593425,273.681031 652.547512,262.061007 653.031681,250.938095 C653.275835,244.164926 656.656746,237.636171 662.458505,233.522558 C649.646632,226.741103 643.853149,215.614049 643.853149,199.888697 C643.853149,168.442134 666.807755,159.245537 707.163501,159.245537 L782.081509,159.245537 L782.081509,186.586772 L762.507814,186.586772 Z" id="Fill-5"></path>
            <polygon id="Fill-7" points="911.417986 279.285955 795.82351 279.285955 795.82351 249.574659 860.873613 188.712823 829.199525 188.712823 827.265704 203.444398 797.761472 203.444398 797.761472 159.245537 910.20883 159.245537 910.20883 188.712823 845.634936 249.574659 878.286286 249.818669 880.224248 235.082958 911.417986 235.082958"></polygon>
            <path d="M954.401699,238.059953 C966.000078,238.059953 969.6194,241.693389 969.6194,253.336994 L969.6194,264.004762 C969.6194,275.648366 966.000078,279.285955 954.401699,279.285955 L944.01114,279.285955 C932.421034,279.285955 928.797575,275.648366 928.797575,264.004762 L928.797575,253.336994 C928.797575,241.693389 932.421034,238.059953 944.01114,238.059953 L954.401699,238.059953 Z" id="Fill-9"></path>
            <path d="M1012.64078,143.500509 C1004.1969,143.500509 1000.09677,139.388055 1000.09677,130.695635 L1000.09677,118.130723 C1000.09677,109.434166 1004.1969,105.085888 1012.64078,105.085888 L1031.68391,105.085888 C1040.12366,105.085888 1044.46741,109.434166 1044.46741,118.130723 L1044.46741,130.695635 C1044.46741,139.388055 1040.12366,143.500509 1031.68391,143.500509 L1012.64078,143.500509 Z M1057.72988,279.285955 L986.594813,279.285955 L986.594813,248.595631 L1000.34038,247.147584 L1000.34038,191.335711 L986.594813,189.887664 L986.594813,159.201477 L1043.98844,159.201477 L1043.98844,247.147584 L1057.72988,248.595631 L1057.72988,279.285955 Z" id="Fill-11"></path>
            <path d="M1114.95531,219.223989 C1114.95531,245.587431 1119.05923,251.394429 1135.49147,251.394429 C1150.22753,251.394429 1154.09151,245.587431 1154.09151,219.223989 C1154.09151,192.616173 1150.22753,186.568942 1135.49147,186.568942 C1119.05923,186.568942 1114.95531,192.616173 1114.95531,219.223989 M1200,219.223989 C1200,265.423176 1182.60384,282.11519 1135.49147,282.11519 C1086.93529,282.11519 1069.04682,265.423176 1069.04682,219.223989 C1069.04682,172.780428 1086.93529,155.607949 1135.49147,155.607949 C1182.60384,155.607949 1200,172.780428 1200,219.223989" id="Fill-13"></path>
            <path d="M16.5155085,282.899647 L16.5155085,214.127273 L165.57309,298.904869 C167.708811,300.142408 170.204624,300.796358 172.783217,300.796358 C175.36181,300.796358 177.857624,300.142408 179.989205,298.90073 L258.795646,253.409808 C259.859368,252.793108 260.83617,252.039824 261.788139,251.104427 C262.243428,250.640867 262.649049,250.140058 263.071227,249.548191 C264.987581,246.994475 266.005773,244.01031 266.005773,240.918533 L266.005773,149.903577 C265.997495,144.787866 263.245065,140.011547 258.799785,137.432997 L179.980927,91.933797 C177.841068,90.6962585 175.349393,90.0464473 172.783217,90.0464473 C170.208763,90.0464473 167.721228,90.6962585 165.581368,91.933797 L86.9446261,137.333663 L24.3589017,100.675206 L170.411574,16.3528918 C171.077952,15.9638328 171.814693,15.7568866 172.865997,15.7320531 C173.681379,15.7444698 174.471927,15.9638328 175.150722,16.3570307 L326.675144,103.833206 C328.136208,104.677546 329.042648,106.254477 329.042648,107.939019 L329.046787,282.899647 C329.046787,283.868155 328.736363,284.828386 328.140347,285.66031 C327.949954,285.916923 327.730587,286.148703 327.403607,286.446706 C327.118016,286.703319 326.877954,286.885432 326.675144,287.00546 L175.159,374.481636 C174.451232,374.88725 173.631711,375.102474 172.783217,375.102474 C171.934724,375.102474 171.115203,374.88725 170.407435,374.489913 L18.8912909,287.009599 C18.6719243,286.889571 18.4194456,286.690902 18.0552142,286.376344 C17.0784117,285.46578 16.5155085,284.199269 16.5155085,282.899647 Z M250.290014,160.300556 L250.298292,240.148693 L180.270657,280.734989 L180.270657,199.864538 L250.290014,160.300556 Z M172.621797,105.824029 L243.075748,146.331685 L170.912392,187.100094 L102.445158,146.513798 L172.621797,105.824029 Z M344.758407,107.939019 C344.758407,100.65865 340.83878,93.8708138 334.530954,90.2244211 L183.010671,2.74410712 C180.105097,1.06784259 176.880821,0.153140217 173.433039,0.0289724734 L172.7708,0 C169.186432,0 165.65587,0.951952698 162.555764,2.7399682 L11.0396198,90.2161433 C7.96434745,91.991742 5.38989334,94.5578753 3.59357005,97.6289575 L0.133371286,103.560037 C-0.135663308,104.023596 0.013340467,104.62374 0.48104676,104.896909 L164.554898,201.598748 L164.554898,280.242457 L2.26081407,187.940296 C2.1076713,187.857518 1.94211155,187.811989 1.7765518,187.811989 C1.60685306,187.811989 1.43715431,187.857518 1.28401155,187.948574 C0.986003997,188.122409 0.799749278,188.441106 0.799749278,188.792915 L0.799749278,282.907925 C0.808027266,288.569974 3.20036565,294.029216 7.38488832,297.911527 L7.73670279,298.217808 C8.83767513,299.194594 9.90967451,299.976851 11.0230638,300.622523 L162.555764,388.098698 C165.664148,389.894991 169.198849,390.838666 172.783217,390.838666 C176.363447,390.838666 179.906426,389.894991 183.010671,388.098698 L334.526815,300.618384 C335.631926,299.985129 336.699787,299.202872 337.79662,298.242641 L338.20638,297.878416 C339.203878,296.951297 340.114456,295.924843 340.905004,294.828028 C343.42979,291.305803 344.762546,287.187573 344.762546,282.899647 L344.758407,107.939019 Z" id="Fill-15"></path>
        </g>
    </g>
</svg>