<?xml version="1.0" encoding="UTF-8"?>
<svg width="31px" height="35px" viewBox="0 0 31 35" version="1.1" xmlns="http://www.w3.org/2000/svg" xmlns:xlink="http://www.w3.org/1999/xlink">
    <!-- Generator: Sketch 48.2 (47327) - http://www.bohemiancoding.com/sketch -->
    <title>Group 18</title>
    <desc>Created with Sketch.</desc>
    <defs>
        <polygon id="path-1" points="3.59580171e-05 0.0002 30.874 0.0002 30.874 35 3.59580171e-05 35"></polygon>
    </defs>
    <g id="News-images" stroke="none" stroke-width="1" fill="none" fill-rule="evenodd">
        <g id="Group-18">
            <mask id="mask-2" fill="white">
                <use xlink:href="#path-1"></use>
            </mask>
            <g id="Clip-17"></g>
            <path d="M1.479,25.3342 L1.479,19.1752 L14.827,26.7672 C15.019,26.8782 15.242,26.9372 15.473,26.9372 C15.704,26.9372 15.927,26.8782 16.118,26.7672 L23.175,22.6932 C23.271,22.6382 23.358,22.5702 23.443,22.4862 C23.484,22.4452 23.521,22.4002 23.558,22.3472 C23.729,22.1192 23.821,21.8512 23.821,21.5752 L23.821,13.4242 C23.82,12.9662 23.574,12.5382 23.176,12.3072 L16.117,8.2322 C15.926,8.1222 15.703,8.0632 15.473,8.0632 C15.243,8.0632 15.02,8.1222 14.828,8.2322 L7.786,12.2982 L2.182,9.0152 L15.26,1.4642 C15.32,1.4292 15.386,1.4112 15.48,1.4082 C15.553,1.4102 15.624,1.4292 15.685,1.4642 L29.253,9.2982 C29.385,9.3742 29.466,9.5152 29.466,9.6662 L29.466,25.3342 C29.466,25.4212 29.438,25.5072 29.385,25.5812 C29.368,25.6052 29.349,25.6252 29.319,25.6512 C29.294,25.6752 29.272,25.6902 29.254,25.7012 L15.686,33.5352 C15.622,33.5712 15.549,33.5912 15.473,33.5912 C15.397,33.5912 15.323,33.5712 15.26,33.5362 L1.691,25.7022 C1.672,25.6902 1.65,25.6742 1.617,25.6452 C1.529,25.5632 1.479,25.4502 1.479,25.3342 Z M22.414,14.3552 L22.415,21.5052 L16.144,25.1402 L16.144,17.8982 L22.414,14.3552 Z M15.458,9.4772 L21.768,13.1042 L15.305,16.7552 L9.174,13.1202 L15.458,9.4772 Z M30.873,9.6662 C30.873,9.0142 30.522,8.4062 29.958,8.0802 L16.389,0.2462 C16.128,0.0952 15.84,0.0132 15.531,0.0022 L15.472,0.0002 C15.15,0.0002 14.834,0.0852 14.557,0.2452 L0.989,8.0792 C0.713,8.2372 0.482,8.4672 0.322,8.7422 L0.012,9.2742 C-0.012,9.3152 0.001,9.3692 0.043,9.3932 L14.736,18.0532 L14.736,25.0962 L0.202,16.8302 C0.188,16.8232 0.174,16.8182 0.159,16.8182 C0.144,16.8182 0.129,16.8232 0.115,16.8312 C0.088,16.8462 0.072,16.8752 0.072,16.9062 L0.072,25.3352 C0.072,25.8422 0.287,26.3302 0.661,26.6782 L0.693,26.7062 C0.792,26.7932 0.887,26.8632 0.987,26.9212 L14.557,34.7552 C14.835,34.9152 15.152,35.0002 15.473,35.0002 C15.793,35.0002 16.11,34.9152 16.389,34.7552 L29.957,26.9212 C30.056,26.8632 30.152,26.7942 30.25,26.7082 L30.286,26.6752 C30.375,26.5922 30.457,26.5002 30.528,26.4022 C30.754,26.0872 30.874,25.7182 30.874,25.3342 L30.873,9.6662 Z" id="Fill-16" fill="#008AB1" mask="url(#mask-2)"></path>
        </g>
    </g>
</svg>