<svg width="44" height="51" viewBox="0 0 44 51" fill="none" xmlns="http://www.w3.org/2000/svg">
<path fill-rule="evenodd" clip-rule="evenodd" d="M0 37.5312L21.6706 50.0441L43.3412 37.5312V12.5092L21.6706 0L1.08408 11.8881C0.668822 12.127 0.411583 12.5753 0.411583 13.0531C0.411583 13.5308 0.668822 13.9791 1.08408 14.218L20.7335 25.5623V35.4733L0 23.5043V37.5312ZM21.6669 47.8796L1.8705 36.4508V26.7456L10.71 31.8474L10.7085 31.8499L21.5971 38.2184L33.0222 31.6257V18.4367L21.6008 11.844L11.1606 17.8711L2.80758 13.0494L21.6706 2.16081L41.4633 13.5933V36.4508L21.6669 47.8796ZM13.0327 18.9518L21.6706 23.938L30.2379 18.9898L21.6008 14.0048L13.0327 18.9518ZM31.1517 20.6238L22.6077 25.5586V35.4751L31.1517 30.5453V20.6238Z" fill="#053447"/>
</svg>
