<svg width="150" height="51" viewBox="0 0 150 51" fill="none" xmlns="http://www.w3.org/2000/svg">
<g clip-path="url(#clip0)">
<path fill-rule="evenodd" clip-rule="evenodd" d="M61.4324 35.1867C60.6239 35.6681 58.4925 35.8776 57.4452 35.8776C54.509 35.8776 52.7414 34.3488 52.7414 31.7433V18.4918L51.0032 18.3118V14.5083H58.1508V30.3028C58.1508 31.2031 58.6763 31.5927 59.7236 31.5927H60.8334L61.4324 35.1867Z" fill="#002E42"/>
<path fill-rule="evenodd" clip-rule="evenodd" d="M89.0048 23.9784H87.2372C85.5578 23.9784 85.0176 24.3679 85.0176 25.746C85.0176 27.1241 85.6166 27.6937 87.2372 27.6937C88.8836 27.6937 89.3944 27.0947 89.3944 25.7166C89.3944 24.8751 89.2437 24.3385 89.0048 23.9784ZM94.1312 23.9784C94.7008 24.548 94.8515 25.2683 94.8515 25.9849C94.8515 29.1305 92.5437 30.7805 87.2078 30.7805C86.4582 30.7805 85.1977 30.6923 85.1683 30.6923C84.8633 30.6923 84.7971 30.8687 84.7751 30.9386C84.5656 31.6515 85.1389 31.7581 86.6088 32.0153L90.8312 32.64C94.3407 33.1802 95.208 34.8266 95.208 36.8992C95.208 39.5965 93.7417 41.5736 87.0572 41.5736C84.7199 41.5736 82.1108 41.3053 79.9243 40.9452V37.2887C82.5591 37.4982 84.6538 37.6782 87.1123 37.6782C89.1187 37.6782 89.8758 37.6158 89.8758 36.8698C89.9052 36.2708 89.1959 36.0944 87.6268 35.8335L83.7571 35.2234C81.2399 34.7714 80.4902 33.3346 80.549 31.9565C80.5784 31.1186 80.9973 30.3065 81.7176 29.7994C80.1301 28.9615 79.4098 27.5834 79.4098 25.6321C79.4098 21.7367 82.2578 20.5975 87.2629 20.5975H97.027V23.9857H94.1312V23.9784Z" fill="#002E42"/>
<path fill-rule="evenodd" clip-rule="evenodd" d="M128.546 20.6857H125.974H124.169V21.88V21.9351V24.1584V25.3527H125.974V31.7764V35.5835H131.402V31.7764V20.6857H128.546Z" fill="#002E42"/>
<path d="M128.039 13.3176C129.726 13.3176 130.909 14.4715 130.909 16.0958C130.909 17.687 129.722 18.8409 128.039 18.8409C126.385 18.8409 125.198 17.687 125.198 16.0958C125.198 14.4715 126.385 13.3176 128.039 13.3176Z" fill="#002E42"/>
<path d="M119.286 30.075C120.972 30.075 122.156 31.2289 122.156 32.8531C122.156 34.4443 120.969 35.5983 119.286 35.5983C117.632 35.5983 116.445 34.4443 116.445 32.8531C116.445 31.2289 117.632 30.075 119.286 30.075Z" fill="#002E42"/>
<path d="M69.8478 20.1712C65.155 20.1712 61.7888 23.4455 61.7888 28.0538C61.7888 32.5701 65.155 35.8481 69.8478 35.8481C74.6288 35.8481 77.9949 32.5701 77.9949 28.0538C77.9949 23.4455 74.6288 20.1712 69.8478 20.1712ZM69.8735 31.295C67.9074 31.295 66.4963 29.9206 66.4963 28.028C66.4963 26.0987 67.9074 24.7243 69.8735 24.7243C71.8763 24.7243 73.2874 26.0987 73.2874 28.028C73.2874 29.9206 71.8763 31.295 69.8735 31.295Z" fill="#002E42"/>
<path d="M141.849 20.2668C137.156 20.2668 133.79 23.5411 133.79 28.1493C133.79 32.6657 137.156 35.9437 141.849 35.9437C146.63 35.9437 149.996 32.6657 149.996 28.1493C150 23.5411 146.634 20.2668 141.849 20.2668ZM141.875 31.3906C139.909 31.3906 138.498 30.0162 138.498 28.1236C138.498 26.1943 139.909 24.8199 141.875 24.8199C143.878 24.8199 145.289 26.1943 145.289 28.1236C145.289 30.0162 143.881 31.3906 141.875 31.3906Z" fill="#002E42"/>
<path fill-rule="evenodd" clip-rule="evenodd" d="M112.627 35.4586H98.2985V31.7691L106.361 24.2173H102.436H102.197H99.276V20.5608H112.476V24.2173L104.472 31.7691L108.761 31.7985V29.9721H112.627V35.4586Z" fill="#002E42"/>
<path fill-rule="evenodd" clip-rule="evenodd" d="M0 37.5312L21.6706 50.0441L43.3412 37.5312V12.5092L21.6706 0L1.08408 11.8881C0.668822 12.127 0.411583 12.5753 0.411583 13.0531C0.411583 13.5308 0.668822 13.9791 1.08408 14.218L20.7335 25.5623V35.4733L0 23.5043V37.5312ZM21.6669 47.8796L1.8705 36.4508V26.7456L10.71 31.8474L10.7085 31.8499L21.5971 38.2184L33.0222 31.6257V18.4367L21.6008 11.844L11.1606 17.8711L2.80758 13.0494L21.6706 2.16081L41.4633 13.5933V36.4508L21.6669 47.8796ZM13.0327 18.9518L21.6706 23.938L30.2379 18.9898L21.6008 14.0048L13.0327 18.9518ZM31.1517 20.6238L22.6077 25.5586V35.4751L31.1517 30.5453V20.6238Z" fill="#053447"/>
</g>
<defs>
<clipPath id="clip0">
<path d="M0 0H150V50.0441H0V0Z" fill="white"/>
</clipPath>
</defs>
</svg>
